<svg version="1.1" xmlns="http://www.w3.org/2000/svg" style="display: block;" viewBox="0 0 2048 2048" width="1024" height="1024">
<path transform="translate(0,0)" fill="rgb(254,254,254)" d="M 0 0 L 2048 0 L 2048 2048 L 0 2048 L 0 0 z"/>
<path transform="translate(0,0)" fill="rgb(24,24,24)" d="M 1928.51 717.422 C 1930.45 716.086 1931.34 715.647 1933.71 715.616 C 1936.26 718.228 1937.71 719.964 1938.85 723.456 C 1938.51 726.026 1938.45 727.371 1936.25 729.139 C 1935.59 729.671 1934.49 730.046 1933.69 730.358 C 1932.85 728.398 1932.81 727.206 1932.86 725.137 C 1932.92 723.007 1932.93 721.437 1931.35 719.76 C 1930.48 718.839 1929.51 718.171 1928.51 717.422 z"/>
<path transform="translate(0,0)" fill="rgb(24,24,24)" d="M 1669.25 711.155 C 1673.11 714.236 1677.27 717.235 1680.94 720.527 L 1677.18 722.24 C 1673.21 720.608 1669.1 720.124 1664.92 719.299 C 1660.58 718.441 1652.72 717.473 1650.15 713.633 L 1653.26 714.308 L 1652.15 713.718 A 543.894 543.894 0 0 0 1668.26 716.863 C 1667.63 714.626 1668.46 713.234 1669.25 711.155 z"/>
<path transform="translate(0,0)" fill="rgb(48,46,46)" d="M 1668.26 716.863 C 1666.68 714.542 1666 713.593 1663.36 712.626 C 1656.8 710.235 1649.37 706.992 1644.1 702.336 C 1647.72 703.868 1652.29 706.647 1656.19 706.255 C 1656.42 704.125 1656.83 702.603 1657.69 700.639 L 1659.23 700.901 C 1662.1 705.883 1665 707.601 1669.25 711.155 C 1668.46 713.234 1667.63 714.626 1668.26 716.863 z"/>
<path transform="translate(0,0)" fill="rgb(24,24,24)" d="M 1591.37 505.861 C 1592.69 505.85 1592.98 505.805 1594.43 506.021 C 1596.74 506.364 1599.34 507.12 1600.83 508.987 C 1598.61 512.019 1595.03 508.945 1591.77 509.42 C 1588 509.969 1588.83 514.869 1585.45 516.049 C 1584.48 514.871 1583.63 513.994 1582.48 512.951 C 1579 517 1577.84 519.185 1572.22 519.711 C 1568.19 520.087 1566.3 521.133 1562.87 523.314 C 1558.56 526.448 1553.93 529.141 1549.38 531.926 C 1565.03 513.931 1571.85 516.548 1590.3 506.458 L 1591.37 505.861 z"/>
<path transform="translate(0,0)" fill="rgb(48,46,46)" d="M 1759.32 1350.49 C 1769.61 1350.32 1783.9 1348.55 1793.63 1351.77 C 1795.78 1352.48 1795.1 1351.94 1796.07 1353.8 C 1794.4 1356.37 1792.85 1356.29 1789.99 1357.22 C 1781.32 1357.94 1761.08 1360.03 1753.78 1355.06 C 1752.56 1354.22 1752.96 1354.25 1752.7 1352.54 C 1754.64 1350.37 1756.53 1350.81 1759.32 1350.49 z"/>
<path transform="translate(0,0)" fill="rgb(24,24,24)" d="M 1853.38 751.85 C 1859.33 748.287 1866.03 746.476 1872.34 743.656 C 1886.27 737.427 1900.82 730.524 1913.73 722.394 L 1915.16 722.538 C 1907.97 730.117 1896 734.832 1887.15 740.483 A 752.93 752.93 0 0 0 1921.69 735.918 C 1907.07 741.432 1892.65 743.24 1877.83 747.354 C 1869.18 749.756 1860.8 753.678 1852.04 755.514 L 1851.75 753.607 L 1853.38 751.85 z"/>
<path transform="translate(0,0)" fill="rgb(48,46,46)" d="M 1861.28 1347.39 C 1871.49 1347.06 1887.46 1346.24 1896.61 1351.74 L 1896.46 1353.26 C 1893.26 1355.1 1889.69 1355.27 1886.1 1355.72 C 1880.21 1356.68 1874.32 1357.19 1868.35 1356.81 C 1862.76 1356.46 1851.85 1355.57 1848.19 1351.41 L 1848.87 1349.72 C 1852.98 1347.87 1856.86 1347.72 1861.28 1347.39 z"/>
<path transform="translate(0,0)" fill="rgb(48,46,46)" d="M 1591.34 1030.41 C 1600.12 1029.16 1609.93 1029.5 1618.79 1029.78 C 1624.64 1029.97 1637.03 1029.59 1641.16 1033.97 C 1640.99 1034.22 1640.86 1034.5 1640.66 1034.72 C 1637.02 1038.75 1626.07 1038.6 1620.92 1039.1 C 1606.78 1039.77 1585.21 1042.11 1571.91 1037.27 C 1569.78 1036.49 1570.47 1037.06 1569.54 1035.1 C 1574.67 1030.49 1584.84 1030.89 1591.34 1030.41 z"/>
<path transform="translate(0,0)" fill="rgb(48,46,46)" d="M 1686.75 1072.6 C 1697.33 1071.25 1731.4 1070.27 1739.63 1076.19 L 1739.81 1078.16 C 1735.03 1081.82 1723.36 1081.4 1717.25 1081.85 C 1707.11 1082.64 1673.18 1084.78 1664.84 1079.14 L 1664.57 1077.45 C 1664.79 1077.19 1664.98 1076.9 1665.23 1076.67 C 1669.94 1072.32 1680.63 1072.94 1686.75 1072.6 z"/>
<path transform="translate(0,0)" fill="rgb(48,46,46)" d="M 1821.65 1012.43 C 1833.66 1011.42 1868.31 1010.54 1877.6 1016.95 L 1877.14 1018.27 C 1870.63 1021.31 1863.29 1021.29 1856.24 1021.82 C 1839.77 1023.55 1819.44 1024.34 1803.37 1020.22 C 1800.87 1019.58 1798.1 1019.2 1796.69 1016.97 C 1802.67 1013.13 1814.57 1012.83 1821.65 1012.43 z"/>
<path transform="translate(0,0)" fill="rgb(48,46,46)" d="M 1871.65 1444.13 C 1887.45 1444.08 1926.68 1441.86 1940.15 1449.37 L 1940.85 1451.06 C 1938.78 1453.55 1935.66 1453.98 1932.59 1454.31 C 1919.34 1455.74 1905.5 1452.51 1892.39 1451.25 C 1885.41 1450.57 1878.36 1450.73 1871.37 1450.11 C 1863.48 1449.82 1834.01 1449.33 1829.24 1446.76 C 1840.44 1442.21 1859.32 1444.28 1871.65 1444.13 z"/>
<path transform="translate(0,0)" fill="rgb(48,46,46)" d="M 1441.85 1187.38 C 1501.35 1183.43 1605.36 1192.07 1659.05 1218.94 C 1654.21 1218.05 1649.46 1216.46 1644.74 1215.08 C 1624.06 1208.87 1601.55 1206.38 1580.23 1203.3 C 1531.05 1196.2 1481.08 1189.98 1431.4 1188.47 C 1434.88 1188.4 1438.39 1187.82 1441.85 1187.38 z"/>
<path transform="translate(0,0)" fill="rgb(48,46,46)" d="M 910.643 219.742 C 911.57 225.136 910.547 231.936 910.155 237.483 C 907.494 275.167 891.537 292.315 874.032 323.66 C 872.14 319.445 872.699 312.885 872.844 308.277 C 873.856 276.178 886.793 241.937 910.643 219.742 z"/>
<path transform="translate(0,0)" fill="rgb(48,46,46)" d="M 251.831 616.817 C 252.625 616.803 253.419 616.801 254.213 616.825 C 279.829 617.623 317.75 621.373 339.208 635.595 C 347.671 641.203 354.458 648.695 361.358 656.054 C 319.086 660.625 284.162 641.746 251.831 616.817 z"/>
<path transform="translate(0,0)" fill="rgb(48,46,46)" d="M 1001.71 169.974 L 1002.41 170.862 C 983.204 215.849 983.219 238.171 942.626 273.558 C 940.087 267.194 940.534 259.022 941.52 252.305 C 945.622 224.376 963.296 204.523 983.308 186.087 C 989.277 180.588 995.173 174.797 1001.71 169.974 z"/>
<path transform="translate(0,0)" fill="rgb(48,46,46)" d="M 181.631 505.995 C 183.975 506.398 186.327 506.828 188.64 507.386 C 228.075 516.901 267.937 529.906 290.37 566.054 C 288.564 566.073 286.808 566.071 285.003 565.971 C 234.545 563.182 213.959 541.36 181.631 505.995 z"/>
<path transform="translate(0,0)" fill="rgb(48,46,46)" d="M 1056.54 243.406 C 1079.2 241.812 1099.76 247.441 1121.91 250.763 C 1101.12 260.173 1078.89 269.42 1056.44 273.772 C 1039.8 276.409 1016 276.039 999.938 270.801 C 997.372 269.964 996.208 269.492 994.981 267.078 C 995.356 266.101 995.305 266.052 996.074 265.095 C 1001.2 258.721 1034.73 247.066 1044.11 244.911 C 1048.17 243.981 1052.4 243.719 1056.54 243.406 z"/>
<path transform="translate(0,0)" fill="rgb(48,46,46)" d="M 901.502 912.427 C 919.941 911.554 938.385 913.073 956.759 914.496 C 983.106 916.536 1064.18 924.548 1086.42 934.09 C 1095.85 938.134 1103.24 943.746 1109.88 951.519 C 1102.85 948.514 1096.77 943.202 1088.86 942.776 C 1076.48 942.11 1063.39 948.88 1051 950.444 C 1031.2 952.944 1010.21 952.06 990.299 951.873 C 983.026 951.502 976.121 950.627 968.961 949.302 C 977.563 946.54 987.917 946.642 996.945 945.826 C 1018.61 943.868 1040.97 942.836 1062.23 938.122 C 1051.12 933.329 1037.06 932.573 1025.11 931.129 C 1008.62 929.137 992.057 927.05 975.493 925.806 C 960.27 924.663 877.617 922.762 869 917.029 L 869.218 916.124 C 877.584 912.226 892.156 913.01 901.502 912.427 z"/>
<path transform="translate(0,0)" fill="rgb(48,46,46)" d="M 122.746 399.094 C 135.905 403.969 149.29 408.799 162.003 414.743 C 191.088 428.34 227.218 458.581 238.364 489.432 A 246.524 246.524 0 0 1 227.442 486.253 C 182.4 471.888 144.486 441.511 122.746 399.094 z"/>
<path transform="translate(0,0)" fill="rgb(48,46,46)" d="M 1631.79 1338.32 L 1634.16 1338.58 C 1629.67 1343.75 1614.39 1347.34 1607.62 1350.12 C 1600.28 1353.12 1586.92 1358.62 1584.41 1366.77 C 1583.66 1369.2 1584.34 1371.68 1585.7 1373.74 C 1588.78 1378.39 1594.55 1381.41 1599.57 1383.48 C 1619.81 1391.8 1643.55 1395.82 1664.94 1400.23 A 3579.36 3579.36 0 0 0 1774.34 1420.87 C 1760 1421.63 1745.28 1418.69 1730.92 1417.87 A 907.308 907.308 0 0 1 1635.55 1405.8 C 1617.34 1402.59 1541.53 1387.01 1534.04 1372.46 C 1532.63 1369.73 1532.93 1368.98 1533.65 1366.19 C 1544.1 1355.79 1615.1 1341.27 1631.79 1338.32 z"/>
<path transform="translate(0,0)" fill="rgb(48,46,46)" d="M 950.736 1906.39 C 929.274 1913.9 895.722 1918.66 872.895 1922.36 C 822.375 1930.55 772.375 1936.68 721.166 1938.27 C 661.459 1940.13 600.836 1936 541.248 1932.3 L 521.159 1931.54 C 538.47 1927.79 563.895 1929.32 582.109 1929.1 A 2502.35 2502.35 0 0 0 655.706 1927 A 7750.3 7750.3 0 0 0 934.563 1907.4 C 939.628 1906.48 945.555 1906.67 950.736 1906.39 z"/>
<path transform="translate(0,0)" fill="rgb(48,46,46)" d="M 1594.15 1847.31 C 1621.76 1845.69 1734.5 1855.91 1755.67 1867.93 C 1757.97 1869.24 1758.95 1870.01 1759.61 1872.56 C 1759.43 1872.84 1759.29 1873.15 1759.08 1873.41 C 1750.06 1884.59 1609.77 1886.95 1588.84 1887.85 C 1540.53 1889.09 1492.16 1887.93 1443.83 1887.95 C 1458.42 1883.66 1475.24 1883.75 1490.34 1882.36 C 1511.69 1880.4 1607.09 1873.13 1619.58 1863.92 C 1621.13 1862.77 1620.67 1863.35 1620.96 1861.36 C 1614.7 1854.58 1602.43 1851.39 1594.15 1847.31 z"/>
<path transform="translate(0,0)" fill="rgb(48,46,46)" d="M 1151.46 1890.22 C 1166.06 1889.19 1181.08 1889.88 1195.72 1889.94 C 1257.18 1890.21 1318.78 1894.92 1378.85 1908.47 C 1368.16 1909.03 1357.19 1908.27 1346.46 1908.37 C 1306.5 1908.74 1266 1908.81 1226.55 1915.78 C 1219.89 1916.96 1202.76 1918.9 1198.66 1924.75 C 1201.17 1935.68 1246.33 1936.16 1253.5 1947.14 L 1252.58 1948.79 C 1238.12 1956.03 1178.97 1958.57 1160.75 1959.4 C 1122.82 1962.82 1083.33 1960.2 1045.28 1959.12 A 7349.4 7349.4 0 0 1 886.469 1953.62 C 903.335 1949.86 921.973 1949.59 939.204 1947.2 C 966.703 1943.4 1133.77 1918.19 1143.79 1906.89 C 1148.74 1901.3 1142.01 1898.77 1141.71 1893.25 C 1144.2 1890.84 1148.15 1890.74 1151.46 1890.22 z"/>
<path transform="translate(0,0)" fill="rgb(48,46,46)" d="M 296.94 1823.02 C 307.329 1822.57 318.609 1825.19 328.94 1826.63 L 383.58 1834.12 A 2418.84 2418.84 0 0 0 539.124 1850.75 A 8119.11 8119.11 0 0 0 940.81 1869.43 C 986.718 1870.18 1032.68 1868.79 1078.61 1869.17 C 1070.53 1871.21 1062.46 1872.58 1054.23 1873.86 L 940.441 1885.22 C 889.301 1890.58 838.224 1896.13 786.788 1897.79 C 620.334 1903.17 455.633 1871.01 296.94 1823.02 z"/>
<path transform="translate(0,0)" fill="rgb(48,46,46)" d="M 1703.91 1742.29 C 1714.57 1743.3 1725.99 1746.72 1736.51 1748.92 C 1774.4 1756.84 1812.95 1764.59 1849.12 1778.73 C 1854.78 1780.95 1866.86 1785.72 1868.91 1791.74 C 1869.41 1793.19 1868.67 1794.47 1867.93 1795.72 C 1852.68 1821.43 1557.19 1820.3 1511.73 1824.93 C 1502.03 1825.91 1493.2 1827.77 1483.91 1830.74 C 1499.09 1835.15 1550.94 1842.07 1558.41 1853.19 C 1558.19 1853.4 1557.99 1853.62 1557.75 1853.81 C 1540.6 1867.48 1330.34 1867.62 1295.69 1866.96 C 1269.94 1866.47 1243.93 1865.1 1218.25 1863.26 C 1197.69 1862.65 1177.11 1860.75 1156.57 1859.59 C 1135.59 1858.41 1093.53 1858.65 1075.08 1852.32 C 1116.46 1847.98 1158.81 1847.33 1200.37 1845.46 A 3664.37 3664.37 0 0 0 1369.78 1835.27 C 1386.17 1834.03 1422.02 1833.92 1436.18 1828.04 C 1438.33 1827.15 1439.3 1826.66 1440.13 1824.42 C 1433.21 1816.22 1390.33 1809.04 1377.44 1804.02 L 1376.05 1803.47 C 1376.36 1803.42 1376.66 1803.36 1376.97 1803.31 C 1377.48 1803.22 1378 1803.15 1378.51 1803.06 C 1397.89 1799.71 1419.48 1801.61 1439.22 1800.82 C 1481.66 1799.12 1715.93 1792.18 1736.77 1774.04 C 1738.56 1772.49 1739.09 1771.29 1738.93 1768.85 C 1738.07 1755.76 1711.75 1750.91 1704.58 1743.2 C 1704.32 1742.92 1704.13 1742.59 1703.91 1742.29 z"/>
<path transform="translate(0,0)" fill="rgb(48,46,46)" d="M 555.793 943.644 C 557.45 895.274 560.122 845.857 565.679 797.795 C 587.689 607.437 644.562 410.818 757.443 253.829 C 797.62 197.952 845.309 148.145 895.54 101.306 C 901.505 95.7442 918.818 77.9385 925.988 76.1257 C 917.17 88.2674 904.555 98.8563 894.314 110.043 C 877.031 128.923 861.357 148.394 845.921 168.798 A 1165.69 1165.69 0 0 0 675.059 490.322 C 665.506 517.689 657.499 545.775 649.235 573.557 C 658.86 560.377 667.991 546.77 677.938 533.839 C 745.869 445.529 824.273 364.598 915.334 299.98 A 2043.03 2043.03 0 0 1 1003.59 241.846 C 1017.51 233.304 1031.85 225.473 1045.69 216.789 C 1056.14 192.331 1085.08 176.862 1108.39 167.577 C 1127.5 159.965 1147.25 155.281 1167.5 151.931 C 1140.6 172.99 1114.61 197.465 1084.12 213.288 C 1072.47 219.334 1058.7 219.39 1047.52 225.921 C 1036.14 232.571 1025.66 240.889 1014.47 247.897 C 985.437 266.082 956.098 283.886 928.025 303.56 A 936.33 936.33 0 0 0 820.817 391.741 C 808.308 403.635 795.14 415.389 783.854 428.459 C 805.838 420.158 827.27 410.644 849.445 402.802 C 868.161 396.184 890.621 392.613 907.819 382.84 C 917.546 377.313 923.436 365.252 932.532 358.427 C 950.055 345.279 972.088 336.799 991.489 326.758 C 976.524 348.431 960.857 366.107 938.046 379.664 C 965.608 369.718 981.995 367.159 1011.73 372.631 C 1021.64 374.453 1031.24 377.122 1041.34 377.705 C 1006.45 396.124 975.032 409.491 935.447 397.445 C 928.345 395.284 921.544 392.377 914.735 389.444 C 871.602 403.932 785.527 432.067 752.899 461.388 C 735.259 477.24 711.945 508.274 696.372 527.421 C 681.369 545.866 653.668 579.941 643.574 600.535 C 635.067 617.891 631.748 639.621 627.182 658.43 A 2539.44 2539.44 0 0 0 579.029 910.436 C 576.402 929.631 570.865 959.661 570.596 978.139 C 570.525 982.973 571.666 986.996 573.089 991.58 A 1127.24 1127.24 0 0 1 627.366 910.715 C 637.666 896.855 649.586 883.639 659.173 869.341 C 667.792 856.486 674.169 841.842 681.67 828.305 C 690.527 812.322 700.778 797.031 710.971 781.881 A 636.061 636.061 0 0 1 736.563 746.22 C 742.086 739.099 749.368 731.905 753.748 724.118 C 756.432 653.22 759.271 570.589 775.293 501.588 A 2489.09 2489.09 0 0 1 772.913 702.46 C 893.736 573.253 1025.68 506.694 1190.13 448.947 L 1191 449.488 C 1178.11 456.663 1164.52 462.662 1151.41 469.438 C 1133.66 478.61 1116.27 488.596 1098.94 498.524 A 1961.97 1961.97 0 0 0 911.063 621.535 C 871.593 650.422 832.217 679.952 797.761 714.839 C 778.258 734.585 762.307 756.817 746.798 779.739 C 741.491 787.583 735.592 795.432 731.267 803.867 C 746.884 788.688 764.537 776.112 781.925 763.068 A 767.109 767.109 0 0 1 993.384 651.2 C 1019.01 642.347 1045.72 635.343 1071.84 628.054 C 1094.61 621.703 1117.97 614.291 1141.15 609.814 C 1119.3 619.127 1096.57 626.303 1074.73 635.589 C 985.124 673.685 888.578 719.924 810.486 778.275 C 795.817 789.236 779.349 799.928 767.192 813.68 C 901.782 792.854 1029.88 790.369 1165.37 801.135 A 2114.17 2114.17 0 0 1 1254.16 810.541 C 1273.56 813.022 1293.84 817.016 1313.39 817.269 C 1327.31 817.45 1341.1 815.78 1354.94 814.595 C 1380.42 812.413 1405.86 809.718 1431.39 808.146 A 1543.91 1543.91 0 0 1 1714.14 814.31 C 1734.77 816.681 1756.56 818.042 1776.79 822.711 C 1773.81 810.849 1770.99 798.924 1767.44 787.216 C 1757.05 781.894 1735.09 766.682 1727.75 758.483 C 1710.43 747.287 1695 732.433 1677.18 722.24 L 1680.94 720.527 C 1692.95 729.503 1706.19 736.171 1718.09 745.565 C 1704.16 722.098 1685.17 701.564 1670.67 678.226 C 1668.44 674.814 1666.29 671.346 1663.66 668.218 L 1662.8 669.301 C 1657.45 675.959 1650.43 677.734 1646.64 682.872 C 1647.21 685.013 1646.59 684.198 1648.36 685.282 C 1651.86 687.433 1654.79 688.795 1655.91 693.043 C 1656.03 693.51 1656.1 693.988 1656.19 694.461 L 1655.42 695.382 L 1654.81 694.319 C 1653.36 691.862 1652.5 689.957 1649.77 688.749 C 1646.82 688.798 1644.02 688.963 1641.1 689.307 L 1638.67 693.019 L 1639.63 697.52 C 1637.88 699.795 1624.39 702.169 1620.89 702.7 C 1618.16 703.115 1616.65 702.329 1614.52 700.64 C 1610.19 697.201 1607.64 690.64 1607.52 685.235 C 1607.45 681.646 1608.25 678.472 1610.74 675.816 C 1613.42 672.96 1618.71 674.378 1621.52 671.23 C 1617.95 664.531 1606.62 664.006 1609.64 653.253 C 1611.36 647.116 1628.57 635.602 1627.42 633.396 C 1626.55 631.727 1627.05 632.744 1625.64 631.211 C 1623.29 628.669 1621.27 623.256 1621.87 619.72 C 1622.35 616.889 1623.79 614.905 1626.17 613.373 C 1629.26 611.388 1635.28 609.539 1637.48 606.747 C 1642.26 600.671 1639.19 596.954 1648.65 593.716 C 1659.49 590.009 1676.41 597.815 1685.62 589.701 C 1685.56 589.403 1685.49 589.106 1685.44 588.807 C 1684.46 583.793 1685.07 579.803 1688.11 575.593 C 1691.58 570.772 1697.45 567.36 1703.35 566.669 C 1709.83 565.91 1712.87 571.416 1717.8 571.222 L 1718.25 567.21 C 1722.35 564.864 1727.58 567.387 1732.06 565.434 C 1730.14 560.825 1725.58 556.696 1728.37 551.303 C 1731.63 545.013 1743.4 543.287 1745.26 540.491 C 1746.88 538.048 1746.38 532.747 1749.34 531.127 C 1753.55 528.823 1762.29 527.804 1767.07 526.798 C 1773.89 525.362 1779.46 526.47 1785.43 530.221 C 1790.97 533.701 1793.49 537.676 1795.66 543.728 C 1805.45 544.264 1816.4 534.196 1825.55 544.153 C 1826.8 545.512 1827.9 547.062 1829 548.544 C 1831.34 549.348 1832.97 549.241 1835.39 549.132 C 1839.57 548.943 1843.05 549.246 1846.29 552.155 C 1850.69 556.111 1852.16 564.499 1854.78 569.926 C 1852.06 572.032 1849.01 573.854 1847.57 577.087 L 1848.35 578.471 C 1853.31 578.995 1857.78 577.486 1862.53 576.241 C 1870.63 579.346 1876.28 581.957 1880.14 590.429 C 1881.94 594.39 1882.11 597.88 1881.42 602.105 A 137.831 137.831 0 0 0 1877.62 604.997 C 1879.78 606.703 1882.27 608.392 1884.19 610.35 C 1893.29 609.176 1904.93 608.649 1912.69 614.444 C 1914.45 615.754 1916.8 618.114 1916.96 620.413 C 1917.03 621.533 1916.77 622.953 1916.6 624.068 C 1920.4 628.293 1928.84 635.092 1928.26 641.334 C 1927.91 645.021 1925.96 647.585 1922.99 649.618 A 85.2162 85.2162 0 0 1 1918.88 652.208 C 1920.77 656.261 1922.77 660.293 1924.53 664.405 C 1930.14 667.72 1936.61 672.605 1938.07 679.389 C 1939.24 684.767 1935.17 691.81 1936.29 697.054 C 1937.58 703.14 1943.4 704.176 1940.08 711.541 C 1938 713.364 1936.44 714.806 1933.71 715.616 C 1931.34 715.647 1930.45 716.086 1928.51 717.422 C 1923.67 713.684 1919.48 708.296 1914.95 704.035 C 1915.97 701.896 1916.86 701.344 1918.67 699.904 C 1917.99 698.024 1917.95 697.982 1916.58 696.732 C 1912.99 693.446 1910.03 690.538 1907.5 686.298 C 1901.58 694.362 1895.91 702.616 1889.46 710.277 C 1881.77 719.422 1856.78 742.859 1853.38 751.85 L 1851.75 753.607 L 1852.04 755.514 C 1842.6 758.733 1834.43 767.135 1826.22 772.709 L 1826.02 773.575 C 1821.16 793.495 1817.75 800.046 1817.28 821.872 C 1831.59 823.143 1937.95 831.891 1941.91 836.338 C 1941.93 838.851 1942.59 841.359 1940.94 843.32 C 1926.44 844.728 1894.83 838.059 1878.54 836.256 C 1858.39 834.025 1838.12 833.292 1817.96 831.327 C 1820.37 839.769 1859.88 930.278 1861.83 931.997 C 1864.71 931.97 1867.13 932.425 1869.68 930.999 C 1871.06 915.451 1868.02 896.594 1866.6 880.969 C 1873 897.397 1877.72 912.516 1880.32 930.01 C 1886.47 913.807 1887.77 896.611 1895.39 880.554 C 1895.53 898.055 1892.29 916.068 1890.37 933.479 C 1902.37 916.377 1909.96 899.753 1927.72 887.248 C 1923.75 894.486 1907.66 922.662 1908.64 928.958 C 1908.69 929.249 1908.81 929.522 1908.9 929.805 C 1911.06 929.9 1911.9 929.382 1913.4 927.861 C 1923.46 917.651 1931.62 907.576 1943.23 898.743 C 1937.12 909.066 1930.84 919.346 1925.09 929.871 C 1931.06 929.843 1937.06 929.705 1943.03 929.797 C 1942.94 934.781 1943 939.829 1942.59 944.796 C 1918.76 946.719 1894.62 945.711 1870.72 946.73 A 3831.63 3831.63 0 0 0 1734.77 956.242 C 1664.8 962.413 1595.31 973.054 1525.82 983.061 C 1480.4 989.602 1435.57 996.995 1390.42 1005.16 C 1336.16 1014.96 1280.67 1025.56 1228.96 1045.15 C 1219.89 1048.58 1204.72 1053.52 1198.44 1061.26 C 1196.93 1063.13 1196.9 1063.83 1196.77 1066.12 C 1199.74 1071.64 1206.61 1073.76 1212.29 1075.47 C 1239.98 1083.81 1271.07 1084.52 1299.71 1086.11 C 1316.27 1087.03 1332.81 1088.34 1349.37 1089.17 C 1365.12 1089.97 1381.68 1089.43 1397.06 1093.22 L 1403.38 1094.74 C 1394.58 1090.41 1387.1 1086.28 1379.82 1079.64 C 1398.67 1084.85 1416.55 1088.9 1433.41 1099.11 C 1423.79 1078.96 1411.86 1066.82 1393.34 1054.47 C 1420.75 1065.98 1430.24 1073.25 1445.87 1098.75 C 1441.67 1080.85 1434.1 1063.85 1424.72 1048.06 C 1419.75 1039.67 1414.13 1031.53 1410.11 1022.64 C 1436.93 1050.74 1443.3 1060.28 1456.15 1097.45 C 1455.96 1083.77 1456.45 1070.17 1456.57 1056.49 C 1456.65 1047.9 1456.09 1039.24 1456.67 1030.66 C 1463.15 1051.03 1463.09 1076.08 1464.33 1097.27 C 1471.99 1075.19 1476.83 1058.83 1490.83 1039.58 C 1484.67 1055.28 1481.73 1071.18 1477.29 1087.32 C 1475.39 1094.2 1472.1 1101.05 1470.51 1107.87 C 1486.26 1091.46 1495.38 1075.72 1517 1065.87 C 1507.06 1079.62 1497.72 1093.18 1489.36 1107.97 C 1520.91 1114.75 1552.72 1118.48 1584.64 1122.93 C 1633.86 1129.79 1685.7 1138.31 1732.04 1156.75 C 1751.78 1164.61 1770.65 1174.75 1789.1 1185.22 C 1781.38 1171 1775 1155.06 1769.3 1139.89 C 1783.8 1158.76 1795.44 1179.15 1809.67 1198.07 C 1806.62 1182.24 1807.03 1166.94 1806.7 1150.91 C 1806.46 1139.13 1805.76 1127.34 1805.24 1115.57 L 1806.18 1115.96 L 1805.59 1113.48 C 1811.3 1124.74 1815.32 1174.22 1818.29 1190.95 C 1820.03 1172.98 1825.93 1142.38 1833.54 1126.7 C 1831.49 1140.79 1822.63 1194.05 1826.25 1205.62 L 1827.53 1205.74 C 1830.31 1198.53 1830.58 1190.12 1832.28 1182.54 C 1838.87 1153.31 1846.4 1123.76 1864.35 1099.24 C 1859.17 1121.31 1836.48 1200.32 1845.27 1217.63 C 1849.14 1210.52 1849.09 1200.04 1850.96 1192.08 C 1855.22 1174.05 1861.65 1157.73 1870.65 1141.55 C 1865.02 1162.66 1848.3 1213.28 1854.59 1232.68 L 1854.77 1231.79 C 1861.34 1200.78 1876.99 1172.49 1894.81 1146.68 C 1880.3 1183.58 1864.75 1225.49 1859.1 1264.76 C 1859.36 1264.31 1859.62 1263.87 1859.87 1263.41 C 1864.18 1255.56 1866.03 1245.46 1869.43 1237.06 C 1879.48 1212.27 1897.82 1191.03 1918.39 1174.41 C 1895.08 1206.8 1870.65 1247.14 1863.08 1286.78 C 1876.73 1256.17 1890.24 1230.06 1918.87 1210.88 C 1924.71 1206.96 1930.99 1202.8 1937.56 1200.25 C 1910.09 1221.95 1888.56 1252.16 1874.75 1284.13 C 1891.57 1264.18 1915.29 1240.93 1941.63 1235.73 C 1917.1 1253.71 1896.5 1274.76 1877.56 1298.46 C 1887.54 1300.04 1906.64 1300.16 1915.02 1305.24 L 1914.68 1306.65 C 1903.13 1311.8 1864.98 1310.84 1850.62 1311.88 C 1819.58 1314.12 1685.18 1327.34 1672.39 1356.66 C 1671.16 1359.46 1671.5 1360 1672.53 1362.67 C 1675.91 1365.8 1679.24 1367.19 1683.62 1368.5 C 1714.15 1377.66 1748.01 1379.95 1779.54 1383.79 C 1817.27 1388.38 1855.12 1393.51 1892.93 1397.37 C 1908.5 1398.95 1924.47 1399.57 1939.94 1401.84 C 1939.98 1414.24 1939.68 1426.47 1942.04 1438.7 C 1912.15 1431.08 1884.11 1421.54 1853.63 1415.7 A 1353.78 1353.78 0 0 0 1792.02 1405.98 C 1765.06 1402.46 1632.22 1389.81 1620.8 1373.54 C 1619.18 1371.24 1618.95 1368.78 1619.58 1366.1 C 1621.9 1356.32 1645.35 1344.03 1653.88 1339.93 C 1665.85 1334.18 1679.1 1330.17 1692.36 1329.04 C 1677.45 1325.56 1664.59 1325.58 1649.5 1327.6 C 1666.48 1320.44 1687.2 1324.2 1705.51 1320.86 C 1693.14 1319.51 1682.36 1318.84 1669.97 1320.69 C 1695.01 1309.64 1703.66 1316.83 1728.35 1314.43 C 1728.09 1314.31 1727.83 1314.17 1727.57 1314.05 C 1723.35 1312.08 1717.43 1312.05 1713.84 1309.51 C 1718.15 1308.76 1722.13 1309.15 1726.43 1309.8 C 1714.19 1286.89 1699.06 1276.54 1677.01 1263.83 C 1691.89 1268.03 1707.42 1271.82 1720.41 1280.57 C 1726.65 1284.78 1741.16 1301.84 1744.53 1302.96 L 1745.77 1301.95 C 1745.89 1287.12 1730.29 1267 1720.26 1256.73 C 1712.44 1248.72 1703.37 1241 1693.7 1235.29 C 1688.32 1232.11 1679.87 1229.4 1675.53 1225.23 C 1709.48 1235.41 1731.83 1243.55 1752.56 1274.4 C 1758.46 1283.19 1762.88 1293.27 1769.61 1301.44 L 1769.33 1299.92 C 1764.42 1273.96 1748.04 1248.46 1726.15 1233.43 C 1723.38 1231.52 1720.18 1230.33 1716.86 1229.82 C 1727.96 1227.98 1739.2 1234.34 1747.97 1240.66 C 1768.46 1255.41 1784.04 1277.96 1797.97 1298.7 C 1795.62 1282.58 1790.97 1267.32 1779.25 1255.61 C 1794.09 1265.21 1804.24 1275.51 1814.74 1289.59 C 1811.14 1275.52 1806.59 1266.09 1797.77 1254.62 C 1806.5 1261.19 1812.77 1266.92 1818.11 1276.57 C 1820.22 1280.37 1821.83 1284.24 1824.71 1287.55 C 1820.2 1268.79 1814.13 1256.75 1797.25 1246.32 C 1743.85 1213.31 1679.38 1202.6 1618.59 1191.92 L 1516.78 1174.54 C 1480.61 1168.39 1444.75 1160.82 1408.49 1155.06 A 3381.43 3381.43 0 0 0 1224.72 1132.04 L 1225.79 1131.74 L 1225.1 1131.59 A 859.499 859.499 0 0 1 1312.5 1130.32 C 1320.24 1130.6 1328.35 1130.21 1335.97 1131.51 C 1376.48 1138.42 1415.43 1153.56 1456.29 1159.46 C 1520.56 1168.74 1585.78 1172.51 1649.71 1183.87 C 1594.51 1154.2 1540.08 1147.24 1478.55 1142.37 C 1459.78 1140.89 1440.06 1140.7 1421.57 1137.2 C 1386.69 1130.59 1354.22 1114.8 1319.09 1110.16 C 1281.39 1105.18 1105.74 1107.62 1090.46 1083.29 C 1090 1080.55 1090.31 1078.82 1091.85 1076.52 C 1094.55 1072.48 1099.02 1069.24 1102.74 1066.15 C 1078.79 1075.63 1055.07 1085.59 1030.36 1092.96 C 1042.48 1097.5 1055.51 1100.03 1068.07 1103.12 C 1103.79 1111.92 1140.92 1118.45 1176.08 1129.12 C 1161.16 1129.74 1144.84 1126.22 1129.99 1124.2 C 1103.04 1120.53 1012.64 1109.34 995.451 1093.94 C 994.562 1093.14 993.967 1092.23 993.311 1091.25 C 993.96 1089.66 994.154 1089.93 995.731 1089.29 C 1002.45 1086.53 1010.16 1085.23 1017.18 1083.36 A 879.718 879.718 0 0 0 1044.3 1075.42 C 1065.11 1069.13 1086.14 1063.42 1106.86 1056.88 C 1124.91 1051.19 1142.66 1044.54 1160.85 1039.3 C 1181.16 1033.44 1202.33 1030.01 1222.31 1023.29 C 1210.78 1018.55 1199.25 1013.67 1187.54 1009.38 C 1176.96 1005.51 1165.78 1002.38 1155.63 997.476 C 1182.95 1001.09 1209.44 1006.76 1235.3 1016.42 C 1227.77 1004.47 1220.81 992.43 1211.03 982.154 C 1223.52 987.685 1230.63 994.913 1239.29 1005.2 C 1237.57 990.415 1238.06 976.216 1239.86 961.455 C 1245.93 978.974 1249.41 996.188 1252.08 1014.5 C 1262.52 1003.82 1274.72 992.952 1287.89 985.763 C 1281.58 996.213 1274.87 1005.79 1266.14 1014.38 C 1290.67 1010.8 1315.17 1005.24 1339.44 1000.18 C 1330.84 991.079 1321.83 982.406 1312.86 973.683 C 1326.64 978.833 1336.66 986.04 1347.76 995.621 C 1339.1 981.579 1330.32 971.051 1317.54 960.569 C 1326.23 963.64 1334.22 966.302 1341.61 972.003 L 1333.98 952 C 1337.15 955.54 1340.35 959.049 1342.91 963.075 C 1347.17 969.788 1354.63 991.225 1361.5 993.905 C 1363.34 992.67 1363.33 992.376 1363.79 990.266 C 1366.01 980.161 1364 961.023 1364.29 949.89 C 1367.87 962.239 1372.79 976.239 1373.19 989.092 C 1373.24 990.833 1373.14 990.101 1374.06 991.925 L 1375.4 991.289 C 1377.53 975.6 1376.91 971.828 1383.65 956.617 C 1383.15 968.787 1382.9 980.554 1384.37 992.686 C 1388.1 983.901 1391.59 976.538 1397.73 969.106 C 1395.62 976.035 1393.67 983.056 1390.94 989.772 C 1421.46 984.136 1451.99 978.108 1482.68 973.449 C 1477.08 967.033 1471.88 961.489 1464.49 957.089 C 1439.97 942.495 1397.74 941.11 1369.5 939.174 A 12417.7 12417.7 0 0 1 1008.78 910.303 L 878.116 898.863 C 861.603 897.534 844.973 894.11 828.405 894.843 C 831.517 911.584 832.013 929.022 833.333 945.995 C 841.286 1048.26 827.598 1131.43 797.839 1229.11 C 792.328 1247.2 787.248 1265.6 780.952 1283.42 C 821.087 1226.45 880.612 1174.61 938.498 1136.18 C 948.827 1129.32 960.902 1120.2 972.714 1116.58 C 915.27 1154.36 873.638 1211.59 831.361 1264.67 C 797.744 1306.87 762.714 1348.87 738.742 1397.53 C 723.512 1428.44 714.708 1462.78 707.808 1496.37 C 705.68 1506.74 702.449 1519.81 704.589 1530.31 L 705.998 1532 C 715 1526.23 735.076 1429.77 786.097 1415.2 C 775.475 1423.34 764.877 1432.46 757.53 1443.81 C 743.89 1464.88 734.976 1490.95 726.691 1514.48 C 704.673 1577.01 686.491 1641.14 677.672 1706.96 C 675.678 1721.84 665.313 1798.16 671.024 1804.91 C 672.864 1807.08 674.233 1807.16 676.822 1807.42 C 679.083 1805.84 679.168 1805.86 679.623 1803.01 C 681.65 1790.32 681.294 1776.2 682.256 1763.24 C 684.567 1732.1 687.188 1701.03 692.374 1670.21 C 699.556 1627.53 710.357 1582.92 726.226 1542.63 C 736.911 1515.5 751.272 1490.13 765.826 1464.95 C 803.618 1399.54 845.987 1338.71 904.465 1289.98 C 920.437 1276.68 985.38 1228.44 1002.57 1225.24 C 999.181 1229.12 983.664 1236.94 978.261 1240.52 A 358.44 358.44 0 0 0 953.335 1258.61 C 904.989 1297.17 853.189 1361.64 823.697 1415.73 C 831.999 1436.09 831.761 1463.45 828.871 1484.97 C 827.461 1495.46 824.958 1506.37 824.887 1516.95 C 835.867 1492.74 844.492 1469.12 859.075 1446.6 A 388.391 388.391 0 0 1 891.51 1402.89 C 907.043 1385.12 924.133 1369.6 941.122 1353.31 C 971.005 1324.66 1016.22 1280.89 1050.73 1260.53 C 1065.94 1251.55 1083.16 1245.02 1099.34 1238.01 C 1118.48 1229.72 1136.93 1220.79 1154.88 1210.12 L 1156.01 1210.42 C 1141.53 1220.72 1126.68 1230.77 1113.69 1242.96 C 1094.05 1261.39 1076.22 1283.65 1054.02 1298.98 C 1027.49 1317.31 996.818 1326.88 969.554 1343.57 C 923.476 1371.77 874.3 1435.81 853.938 1486.07 C 843.912 1510.83 838.388 1537.31 830.289 1562.72 C 835.526 1563.22 840.771 1563.68 846.001 1564.25 C 853.16 1539.81 866.01 1513.3 883.55 1494.71 C 884.407 1487.51 888.649 1463.01 893.399 1458.42 C 896.97 1464.56 891.354 1520.98 897.945 1524.01 C 905.819 1502.07 901.514 1459.77 903.546 1435.39 C 908.537 1464.3 909.752 1494.74 910.571 1524.05 C 910.91 1536.22 910.442 1548.61 911.471 1560.73 C 918.227 1509.84 925.641 1459.61 940.878 1410.46 L 940.868 1411.5 C 940.653 1423.75 938.545 1436.1 937.476 1448.31 L 927.777 1550.96 C 927.279 1556.03 925.963 1561.06 925.511 1566.05 C 925.269 1568.73 925.998 1569.78 927.698 1571.69 L 929.595 1572.07 C 932.389 1569.7 934.354 1559.15 935.782 1555.36 C 942.705 1537.01 950.102 1518.83 959.186 1501.43 C 974.685 1471.74 995.725 1447.42 1019.37 1424 C 1019.23 1424.28 1019.09 1424.57 1018.94 1424.85 C 1014.52 1433.15 1007.38 1439.72 1002.49 1447.74 C 982.847 1479.9 966.957 1515 961.909 1552.56 C 961.372 1556.56 959.587 1564.13 960.428 1568.03 C 960.548 1568.58 960.816 1569.1 961.01 1569.63 C 962.236 1567.54 962.087 1566.86 962.242 1564.46 C 963.928 1538.57 976.749 1512.83 987.641 1489.63 C 982.829 1516.28 977.021 1542.24 973.323 1569.13 L 973.983 1567.81 C 981.517 1552.48 986.049 1535.51 992.521 1519.68 C 1005.68 1487.5 1033.53 1440.19 1056.97 1415.01 C 1032.14 1458.06 1006.41 1503.87 993.498 1552.16 C 1027.67 1515.82 1062.13 1481.8 1104.82 1455.43 C 1113.36 1450.15 1122.72 1444.08 1132.43 1441.29 C 1086.7 1469.7 1053.63 1514.23 1028.15 1560.97 C 1051.82 1539.5 1083.79 1523.01 1114.24 1513.64 C 1081.39 1534.07 1040.44 1560.43 1019.9 1594.16 C 1067.15 1553.82 1105.95 1534.27 1168 1524.62 C 1135.59 1540.4 1114.18 1554.86 1086.87 1578.35 C 1105.23 1573.4 1122.66 1569.45 1141.83 1571.1 C 1118.23 1583.31 1094.31 1596.6 1072.18 1611.36 C 1083.67 1614.24 1095.57 1616.03 1106.9 1619.34 C 1129.23 1604.93 1153 1594.46 1177.12 1583.48 C 1200.2 1572.97 1222.74 1562.67 1246.6 1554.01 C 1237.42 1560.42 1227.02 1565.12 1217.55 1571.15 C 1202.63 1580.64 1188.38 1591.26 1173.78 1601.23 C 1161.73 1609.46 1149.2 1617.05 1137.37 1625.59 C 1155.2 1630.1 1173.1 1634.33 1190.83 1639.22 C 1191.47 1625.98 1191.82 1612.56 1192.8 1599.35 C 1198.5 1613.53 1200.41 1626.33 1201.14 1641.59 A 2084.33 2084.33 0 0 1 1240.15 1650.23 C 1239.08 1638.82 1240.24 1628.51 1242 1617.22 C 1245.36 1629.24 1247.54 1642.17 1252.09 1653.77 C 1260.45 1641.02 1265.99 1626.94 1275.19 1614.59 C 1273.66 1629.51 1268.13 1643.25 1265.82 1657.97 C 1275.98 1645.96 1287.65 1636.25 1301.77 1629.18 C 1293.43 1638.4 1283.45 1646.97 1276.38 1657.19 C 1276.27 1657.35 1276.16 1657.5 1276.05 1657.66 C 1320.16 1668.66 1365.25 1676.51 1409.72 1685.99 C 1422.54 1666.42 1434.94 1646.77 1455.51 1634.62 C 1448.1 1618.14 1440.58 1601.32 1432.2 1585.32 C 1409.92 1570.67 1395.13 1553.05 1389.68 1526.34 C 1386.57 1511.07 1387.94 1495.34 1385 1480.05 C 1378.96 1448.65 1355.63 1415.2 1376.16 1384.6 C 1381.42 1376.76 1394.4 1368.46 1392.68 1358.21 C 1391.65 1352.05 1386.25 1348.2 1381.3 1345.01 C 1370.88 1338.3 1358.33 1334.04 1346.27 1331.45 C 1324.14 1326.7 1300.49 1325.32 1277.92 1324.1 C 1273.42 1323.86 1256.06 1324.78 1253.27 1322.51 C 1256.37 1318.35 1277.53 1315.53 1283.4 1314.68 C 1293.41 1313.23 1303.48 1311.59 1313.52 1310.42 C 1320.59 1309.61 1328.09 1309.8 1335.03 1308.29 C 1342.18 1306.73 1347.15 1301.59 1353.49 1298.4 C 1371.57 1289.28 1396.21 1293.13 1411.97 1305.27 C 1423.09 1313.84 1432.46 1329.58 1434.18 1343.52 C 1437.5 1370.43 1413.72 1374.96 1420.94 1402.61 C 1421.21 1402.87 1421.46 1403.13 1421.73 1403.38 C 1427.98 1409.3 1435.69 1413.9 1442.76 1418.79 C 1454.88 1427.17 1467.14 1435.7 1478.3 1445.36 C 1526.82 1487.39 1568.05 1545.28 1600.2 1600.48 C 1606.79 1611.8 1613.83 1623.1 1619.28 1635.02 A 328.856 328.856 0 0 1 1578.55 1600.19 C 1585.33 1611.4 1593.09 1621.95 1600.24 1632.92 C 1608.2 1645.12 1615.4 1657.89 1622.62 1670.54 C 1626.57 1677.45 1631.68 1684.98 1633.67 1692.7 C 1627.45 1691.83 1620.53 1686.99 1614.79 1684.31 C 1573.07 1664.86 1535.47 1641.5 1498.57 1614 C 1504.66 1623.25 1510.01 1632.85 1515.28 1642.58 C 1530.37 1670.41 1527.8 1680.48 1523.84 1710.91 A 1648.22 1648.22 0 0 0 1600.41 1725.29 C 1621.96 1728.97 1644.39 1731.84 1665.35 1738.18 C 1673.09 1740.52 1685.26 1744.46 1689.93 1751.34 C 1690.29 1753.5 1690.76 1754.91 1689.32 1756.87 C 1684.87 1762.88 1670.71 1766.14 1663.6 1767.57 C 1617.46 1776.8 1567.69 1776.28 1520.71 1778.3 C 1482.12 1779.96 1443.63 1783.14 1405.02 1784.58 C 1376.98 1785.62 1338.66 1785.12 1312.1 1789.81 C 1321.81 1791.83 1340.97 1796.98 1347.43 1804.44 C 1347.75 1805.94 1348.31 1806.68 1347.44 1808.09 C 1343.47 1814.46 1328.51 1815.85 1321.71 1816.89 C 1250 1827.9 1176.94 1831.4 1104.57 1835.03 C 1038.31 1838.34 972.397 1841.76 906.002 1842.51 C 798.633 1843.74 690.355 1838.71 583.269 1831.11 C 542.907 1828.25 502.954 1824.5 462.729 1820.12 C 427.871 1816.32 392.863 1812.35 358.489 1805.29 C 327.429 1798.91 285.501 1788.78 259.905 1769.84 C 254.199 1765.61 248.018 1759.94 247.214 1752.46 C 246.537 1746.15 249.681 1740.47 253.722 1735.88 C 270.99 1716.27 316.05 1699.97 340.595 1688.89 C 297.948 1684.75 263.283 1694.83 223.957 1710.26 C 237.146 1699.19 250.806 1688.35 267.008 1682.02 C 277.097 1678.08 287.678 1675.36 297.654 1671.16 A 727.073 727.073 0 0 0 166.453 1661.22 C 220.789 1651.41 257.264 1646 312.399 1659.99 C 293.755 1644.18 274.6 1630.1 252.941 1618.6 C 236.15 1609.69 218.589 1602.42 201.98 1593.13 C 251.702 1605.38 290.771 1623.05 331.941 1653.57 C 299.412 1603 262.867 1569.13 211.873 1537.38 C 215.233 1536.22 251.14 1554.38 256.734 1557.1 C 290.777 1573.7 322.109 1600.83 348.128 1628.23 C 355.558 1636.05 361.578 1645.5 369.261 1652.98 C 370.618 1654.3 370.992 1655.18 372.981 1654.97 C 370.015 1632.12 329.872 1590.41 312.569 1574.44 C 300.704 1563.49 287.851 1553.53 275.078 1543.67 C 268.728 1538.77 262.163 1534.17 255.728 1529.39 C 300.595 1548.53 339.697 1575.5 372.704 1611.51 C 382.262 1621.94 390.657 1633.32 400.043 1643.84 C 406.494 1644.6 412.882 1645.4 419.27 1646.59 C 406.512 1630.85 397.633 1611.98 385.112 1595.84 C 368.724 1574.7 348.672 1556.61 332.45 1535.46 C 372.296 1564.75 413.862 1599.32 440.389 1641.62 C 447.399 1639.42 454.216 1637.63 461.451 1636.34 C 446.615 1619.46 433.874 1600.86 420.007 1583.2 C 383.669 1536.92 346.248 1491.46 300.795 1453.84 C 376.779 1495.36 416.623 1562.77 475.403 1622.07 C 454.548 1583.02 431.401 1548.15 399.847 1516.81 C 389.078 1506.11 377.212 1496.6 366.306 1486.08 C 403.519 1506.82 433.872 1531.72 462.617 1562.99 C 457.223 1548.76 452.521 1532.64 445.13 1519.39 C 434.713 1500.73 393.091 1459.93 375.237 1443.92 C 398.876 1457.89 420.75 1474.6 439.257 1494.98 A 526.594 526.594 0 0 1 427.88 1452.02 C 424.836 1438.49 423.276 1422.17 417.289 1409.72 C 410.334 1395.26 398.071 1382.35 389.296 1368.83 A 1924.2 1924.2 0 0 0 189.281 1109.97 C 162.959 1080.93 136.243 1051.08 106.608 1025.32 C 206.09 1082.14 293.311 1164.44 359.261 1257.79 C 368.944 1271.5 379.363 1285.25 387.893 1299.69 C 394.812 1311.4 400.454 1324.69 408.457 1335.64 C 398.948 1295.58 394.086 1254.39 389.199 1213.54 C 387.435 1198.81 388.086 1181.42 384.168 1167.28 C 380.881 1155.42 371.154 1144.33 365.143 1133.65 C 297.003 1012.54 204.673 907.191 109.897 806.372 C 129.434 819.423 148.136 833.857 166.715 848.223 C 255.976 917.244 329.266 995.414 380.069 1096.98 C 378.515 1041.76 373.987 986.078 376.905 930.857 C 360.897 908.287 345.196 885.47 327.863 863.882 C 279.165 803.229 223.346 748.877 165.944 696.583 C 149.203 681.332 131.314 667.368 114.546 652.18 C 188.887 691.912 258.435 740.991 315.043 803.963 C 328.791 819.256 342.499 834.764 355.419 850.764 C 363.611 860.91 371.163 871.973 379.854 881.648 C 380.917 852.515 383.372 823.744 385.756 794.708 C 388.617 759.861 391.642 725.371 396.658 690.744 C 385.166 670.313 367.876 651.506 353.177 633.306 C 302.048 570.005 260.376 517.094 246.229 434.36 C 254.081 449.964 259.721 466.604 266.787 482.57 C 274.909 500.924 285.092 519.157 295.235 536.471 C 308.321 558.808 324.753 579.159 340.855 599.352 L 398.305 671.093 C 404.97 644.153 407.067 616.348 414.885 589.602 C 409.312 574.973 404.307 556.748 395.613 543.815 C 387.446 531.666 373.368 522.009 363.493 510.939 A 1007.44 1007.44 0 0 1 288.08 416.681 A 990.425 990.425 0 0 1 231.735 324.143 C 222.458 306.802 214.348 288.67 204.644 271.592 C 218.42 287.068 230.388 304.156 243.563 320.142 L 368.552 472.481 C 364.937 461.746 360.228 451.488 356.384 440.853 C 350.076 423.406 344.687 404.997 339.548 387.155 C 318.46 313.935 312.446 235.982 317.505 160.144 C 318.697 142.265 321.051 105.034 325.542 88.685 C 328.795 94.9448 326.853 151.787 327.52 164.172 A 1276.18 1276.18 0 0 0 342.579 308.87 C 354.059 377.242 377.317 445.185 403.589 509.181 C 409.834 524.394 415.645 540.245 423.133 554.89 C 433.391 506.365 467.068 438.693 490.854 394.502 C 488.359 379.127 487.753 363.322 486.507 347.792 A 1079.61 1079.61 0 0 1 482.817 213.56 C 483.183 201.99 482.679 188.896 485.187 177.605 C 486.572 190.773 486.576 204.304 487.403 217.552 C 489.815 256.197 492.634 294.426 497.812 332.821 C 499.451 344.978 500.637 357.486 503.221 369.471 C 571.428 262.477 633.152 195.696 736.315 120.785 C 755.718 106.696 779.383 87.3256 801.686 78.3873 C 795.23 85.1893 786.367 91.2263 779.182 97.3925 C 758.926 114.775 738.296 131.868 718.882 150.191 C 655.51 209.999 590.713 290.23 544.009 364.118 C 533.227 381.176 522.088 398.591 513.563 416.916 A 1624.86 1624.86 0 0 1 527.518 685.594 C 526.215 718.286 525.286 751.474 522.62 784.042 C 521.419 798.717 515.473 816.499 517.377 830.885 C 518.882 842.255 523.77 853.81 527.463 864.653 C 536.485 891.145 546.694 917.184 555.793 943.644 z"/>
<path transform="translate(0,0)" fill="rgb(254,254,254)" d="M 1386.42 1307.01 C 1389.08 1307.02 1391.74 1307.3 1394.03 1308.78 C 1396.1 1310.13 1396.67 1311.29 1397.18 1313.6 L 1394.18 1314.11 L 1394.18 1316.28 L 1393.48 1314.56 L 1394.58 1318.55 L 1391.56 1322.59 C 1389.75 1322.89 1387.29 1323.3 1385.48 1322.98 C 1383.08 1322.56 1380.85 1321.02 1379.47 1319.01 C 1378.17 1317.12 1377.99 1314.4 1378.89 1312.29 C 1380.27 1309.1 1383.52 1308.35 1386.42 1307.01 z"/>
<path transform="translate(0,0)" fill="rgb(254,254,254)" d="M 1671.66 675.26 C 1669.57 672.157 1667.94 670.786 1667.98 666.985 C 1669.14 666.027 1669.45 665.304 1671.07 665.388 C 1675.6 665.623 1679.36 669.623 1681.93 672.998 C 1690.78 684.596 1700.55 705.998 1705.14 719.889 C 1692.86 706.644 1682.64 689.757 1671.66 675.26 z"/>
<path transform="translate(0,0)" fill="rgb(254,254,254)" d="M 1706.92 612.6 C 1707.3 612.855 1707.79 612.996 1708.06 613.366 C 1709.03 614.694 1709.63 626.233 1709.92 628.339 C 1711.51 639.743 1713.82 650.554 1717.06 661.605 C 1713.35 657.868 1709.88 653.872 1706.32 649.988 C 1703.06 646.23 1688.59 632.852 1687.65 629.399 A 84.9458 84.9458 0 0 0 1691.54 628.956 C 1698.12 628.019 1701.47 626.096 1705.45 620.802 C 1705.41 617.588 1705.65 615.569 1706.92 612.6 z"/>
<path transform="translate(0,0)" fill="rgb(254,254,254)" d="M 1775.83 599.224 C 1780.53 600.59 1786.7 603.738 1791.4 601.237 C 1793.42 600.161 1791.93 600.49 1794.34 600.379 L 1794.02 602.439 L 1793.92 601.099 L 1792.94 603.503 L 1794.48 604.666 L 1793.44 604.908 C 1789.33 619.83 1783.36 634.296 1779.01 649.202 C 1777.82 654.529 1776.31 659.795 1774.91 665.07 C 1767.93 643.313 1770.93 621.187 1775.83 599.224 z"/>
<path transform="translate(0,0)" fill="rgb(254,254,254)" d="M 757.189 1723.73 C 769.053 1727.54 781.664 1742.1 789.426 1751.5 C 802.424 1767.25 817.918 1792.05 815.916 1813.39 C 810.771 1810.59 802.774 1791.46 799.025 1785.11 C 786.632 1764.12 773.854 1741.6 757.189 1723.73 z"/>
<path transform="translate(0,0)" fill="rgb(254,254,254)" d="M 550.555 1066.75 C 550.931 1067.33 551.514 1067.83 551.683 1068.5 C 552.206 1070.57 548.086 1101.47 547.731 1107.29 C 546.519 1127.13 545.979 1147.4 546.307 1167.28 C 543.453 1162.66 541.249 1157.48 538.854 1152.61 C 535.522 1145.09 533.211 1136.97 530.506 1129.19 C 530.1 1130.65 530.318 1131.08 529.01 1131.95 L 523.76 1124.95 C 532.574 1105.18 540.135 1085.81 550.555 1066.75 z"/>
<path transform="translate(0,0)" fill="rgb(254,254,254)" d="M 1803.61 885.617 C 1808.94 889.845 1821.85 925.651 1825.13 934.461 C 1809.56 934.838 1794.03 936.27 1778.48 937.105 C 1783.18 932.297 1787.93 927.703 1793 923.282 L 1803.51 914.529 C 1788.45 917.328 1779.18 924.204 1767.9 934.041 C 1776.07 916.285 1791.11 900.514 1803.61 885.617 z"/>
<path transform="translate(0,0)" fill="rgb(254,254,254)" d="M 1805.75 600.473 C 1808 601.612 1810.12 602.804 1812.67 603.043 C 1814.44 603.21 1815.94 603.502 1817.66 603.941 C 1818.65 605.498 1818.98 606.63 1819.2 608.431 L 1819.42 610.385 C 1822.81 612.293 1828.01 610.332 1831.96 609.896 L 1833.03 610.946 C 1833.09 612.141 1833.2 613.27 1832.95 614.467 C 1831.99 619.087 1827.79 622.641 1823.92 624.847 C 1820.24 624.865 1821.67 619.798 1818.89 617.505 C 1812.27 632.634 1817.09 638.172 1803.87 652.139 C 1796.11 659.33 1787.87 666.11 1779.87 673.033 C 1782.72 658.909 1796.99 609.285 1805.75 600.473 z"/>
<path transform="translate(0,0)" fill="rgb(254,254,254)" d="M 1902.45 684.864 L 1903.18 686.027 C 1899.52 690.296 1896.46 695.026 1892.65 699.151 C 1883.18 709.399 1872.23 718.767 1862.16 728.466 C 1850.86 739.349 1839.49 752.756 1826.58 761.509 L 1825.14 760.756 C 1832.86 740.465 1835.34 720.233 1853.03 705.494 C 1855.15 703.73 1878.57 688.376 1880.11 687.878 C 1881.75 687.349 1883.9 687.71 1885.57 687.859 C 1892.38 688.465 1896.57 688.545 1902.45 684.864 z"/>
<path transform="translate(0,0)" fill="rgb(254,254,254)" d="M 1057.96 1661.14 L 1058.72 1661.22 L 1059.1 1661.9 C 1025.22 1684.38 982.685 1710.67 954.857 1739.92 C 936.152 1759.58 920.327 1783.12 903.44 1804.42 L 902.574 1804.62 C 901.547 1799.03 914.625 1773.55 918.041 1767.49 C 923.387 1758.01 929.281 1746.13 936.439 1737.96 C 942.884 1730.61 952.399 1724.67 960.167 1718.64 C 990.14 1695.38 1020.79 1671.55 1057.96 1661.14 z"/>
<path transform="translate(0,0)" fill="rgb(254,254,254)" d="M 431.394 638.649 C 431.67 638.904 431.989 639.118 432.221 639.414 C 437.116 645.657 483.621 789.218 481.841 796.785 L 479.331 793.687 A 976.557 976.557 0 0 0 421.623 698.686 C 424.382 678.675 426.9 658.346 431.394 638.649 z"/>
<path transform="translate(0,0)" fill="rgb(254,254,254)" d="M 511.218 900.823 C 516.861 906.946 545.817 991.703 550.002 1005.99 C 551.884 1012.42 553.106 1018.8 554.054 1025.43 A 1108.65 1108.65 0 0 1 538.79 1055.6 C 536.476 1060.45 534.282 1065.31 531.335 1069.82 C 522.744 1013.76 518.756 957.011 511.218 900.823 z"/>
<path transform="translate(0,0)" fill="rgb(254,254,254)" d="M 1402.79 1314.39 C 1409.03 1316.96 1416.36 1329.76 1418.94 1335.82 C 1426.58 1353.79 1415.19 1362.56 1409.25 1378.14 C 1405.44 1388.13 1407.25 1396.08 1411.65 1405.34 C 1401.79 1420.06 1403.77 1436.15 1401.85 1453.01 C 1400.84 1461.89 1399.02 1470.52 1396.88 1479.18 C 1395.16 1472.24 1393.1 1465.36 1391.18 1458.47 C 1387.79 1449.64 1384.21 1440.75 1381.47 1431.7 C 1376.1 1414.02 1375.77 1399.81 1389.04 1385.63 C 1392.8 1381.62 1396.95 1377.64 1399.43 1372.69 C 1415.56 1340.53 1378.76 1337.41 1375.2 1326.43 C 1377.74 1325.28 1387.14 1328.2 1392.16 1326.64 C 1397.98 1324.84 1400.13 1319.34 1402.79 1314.39 z"/>
<path transform="translate(0,0)" fill="rgb(254,254,254)" d="M 1836.42 617.945 L 1838.74 619.291 C 1840.91 623.899 1837.27 629.827 1836.64 634.852 C 1836.37 637.051 1836.73 638.192 1838.23 639.795 C 1839.25 638.344 1839.06 638.932 1839.42 637.355 C 1839.97 634.913 1840.19 633.036 1841.6 630.878 L 1843.4 631.254 C 1846.46 635.099 1848.21 639.183 1850.2 643.626 L 1862.42 641.189 C 1847.38 667.012 1814.34 688.398 1792.64 709.778 C 1786.56 715.664 1780.89 721.357 1775.94 728.253 C 1774.14 712.308 1776.09 696.89 1778.2 681.125 C 1788.84 671.235 1816.09 647.681 1822.15 636.614 L 1818.95 637.117 L 1818.47 635.335 C 1821.51 626.23 1830.37 624.713 1836.42 617.945 z"/>
<path transform="translate(0,0)" fill="rgb(254,254,254)" d="M 1009.83 1646.3 C 1009.7 1646.83 979.237 1676.71 975.515 1681.25 C 963.623 1695.77 955.575 1712.83 944.112 1727.33 C 938.596 1734.3 930.678 1739.28 924.915 1746.15 C 907.619 1766.76 892.207 1789.77 877.522 1812.31 C 874.55 1801.72 895.084 1755.13 900.356 1743.18 C 906.023 1730.34 912.343 1717.36 920.775 1706.08 C 942.114 1677.54 977.319 1658.93 1009.83 1646.3 z"/>
<path transform="translate(0,0)" fill="rgb(254,254,254)" d="M 820.388 1420.61 C 823.09 1428.57 821.685 1439.56 821.212 1447.87 C 818.201 1500.68 802.227 1502.05 784.088 1544.97 C 763.346 1594.05 749.684 1691.27 744.731 1744.27 C 743.962 1752.5 743.134 1760.75 742.903 1769.02 C 742.582 1780.47 743.76 1794.47 741.02 1805.48 L 740.016 1804.49 C 736.057 1787.58 737.692 1768.53 738.694 1751.25 C 739.804 1697.46 750.095 1641.31 762.727 1589.06 C 766.874 1571.9 795.297 1482.76 792.813 1475.32 C 787.145 1484.53 783.882 1503.54 779.028 1514.78 C 778.98 1508.32 781.163 1502.15 783.089 1496.1 C 792.683 1465.99 804.786 1447.37 820.388 1420.61 z"/>
<path transform="translate(0,0)" fill="rgb(254,254,254)" d="M 1749.36 593.105 C 1755.23 592.838 1766.6 591.434 1771.71 594.711 C 1773.79 600.173 1768.29 619.528 1767.81 627.912 C 1766.85 644.503 1769.27 660.371 1769 676.768 C 1768.76 691.672 1765.66 706.326 1765.57 721.422 C 1760.24 713.039 1756.78 704.31 1753.58 694.947 C 1750.63 695.438 1750.81 695.439 1748.31 693.783 L 1746.92 694.223 C 1730.55 682 1715.92 656.793 1712.78 636.543 C 1711.59 628.857 1712.7 620.498 1713.3 612.767 C 1716.86 613.857 1719.77 614.752 1723.52 614.581 L 1725.59 613.284 L 1725.79 609.495 C 1733.7 607.931 1740.04 609.677 1746.53 603.257 C 1748.32 614.844 1747.98 625.472 1747.74 637.137 L 1748.17 637.16 C 1748.73 632.477 1755.85 599.164 1755.63 598.343 C 1755.53 597.93 1755.15 597.639 1754.91 597.286 C 1754.52 597.465 1754.13 597.649 1753.74 597.823 C 1752.39 598.416 1751.07 598.872 1749.67 599.311 C 1749.51 597.281 1749.15 595.13 1749.36 593.105 z"/>
<path transform="translate(0,0)" fill="rgb(24,24,24)" d="M 1729.3 615.762 C 1743.94 637.085 1747.07 670.182 1753.58 694.947 C 1750.63 695.438 1750.81 695.439 1748.31 693.783 C 1742.8 667.632 1737.05 641.338 1729.3 615.762 z"/>
<path transform="translate(0,0)" fill="rgb(254,254,254)" d="M 1018.71 1546.86 C 1017.07 1572.69 954.919 1646.14 937.946 1668.36 C 926.237 1683.69 914.428 1699.68 904.087 1715.96 C 893.083 1733.28 882.274 1751.3 872.951 1769.6 C 867.178 1780.93 863.078 1793.81 856.194 1804.44 C 855.747 1802.87 855.322 1801.44 855.267 1799.81 C 854.948 1790.4 859.234 1779.74 861.44 1770.59 C 867.261 1746.45 874.766 1723.34 887.359 1701.8 C 900.214 1679.81 918.862 1661.59 935.411 1642.41 L 1018.71 1546.86 z"/>
<path transform="translate(0,0)" fill="rgb(254,254,254)" d="M 1676.29 634.638 C 1679.14 635.234 1682.34 635.415 1684.39 637.649 C 1684.39 638.571 1684.38 639.493 1684.44 640.413 C 1684.61 643.341 1684.91 643.248 1687.09 645.178 C 1687.46 645.123 1687.83 645.056 1688.2 645.013 C 1691.52 644.631 1692.43 645.465 1694.84 647.508 C 1699.29 651.27 1703.09 656.054 1707.19 660.22 C 1722.15 675.426 1754.32 705.752 1760.43 725.575 C 1765.23 741.126 1764.98 760.485 1766.39 776.763 L 1765.25 777.469 A 108.346 108.346 0 0 1 1760.28 775.067 C 1719.19 753.81 1715.55 727.336 1696.32 689.209 C 1691.61 679.875 1684.79 671.994 1680.11 662.921 C 1677.2 657.275 1675.48 650.318 1673.54 644.249 C 1672.01 643.095 1670.61 642.02 1669.32 640.599 C 1673.6 639.411 1673.78 638.158 1676.29 634.638 z"/>
<path transform="translate(0,0)" fill="rgb(254,254,254)" d="M 882.411 1637.72 C 884.115 1645.15 869.822 1715.54 866.798 1725.97 C 862.469 1740.89 855.976 1755.16 851.887 1770.17 C 848.663 1782 847.393 1798.31 841.789 1808.98 C 840.893 1810.69 840.651 1810.33 838.924 1810.85 C 836.378 1808.4 837.746 1805.75 835.746 1802.9 L 832.876 1804.77 L 831.217 1804.08 C 824.453 1789.13 824.416 1772.61 819.347 1757.21 C 816.788 1749.44 812.251 1741.88 808.572 1734.58 C 801.292 1720.13 796.59 1707.23 793.29 1691.38 C 801.532 1703.48 807.68 1716.94 813.981 1730.12 C 814.739 1732.04 815.652 1733.87 816.564 1735.73 L 817.503 1735.6 C 819.121 1728.81 817.88 1721.23 818.391 1714.23 C 820.099 1690.88 825.549 1664.42 836.493 1643.59 L 836.274 1645.28 C 830.482 1687.25 836.08 1730.86 837.171 1772.99 L 837.71 1773.47 L 837.222 1774.49 C 837.355 1774.99 837.583 1775.48 837.622 1776 C 837.664 1776.57 837.515 1777.14 837.462 1777.71 C 840.059 1772.22 840.746 1754.5 841.628 1747.68 C 847.57 1701.74 856.123 1676.54 882.411 1637.72 z"/>
<path transform="translate(0,0)" fill="rgb(254,254,254)" d="M 1445.63 1589.83 C 1450.87 1591.83 1477.89 1607.63 1483.44 1611.18 C 1489.22 1623.19 1511.61 1668.63 1512.92 1678.49 C 1514.18 1687.89 1512.29 1699.16 1511.81 1708.65 A 961.626 961.626 0 0 1 1469.79 1700.94 C 1453.23 1697.9 1437.17 1694.42 1421.09 1689.35 C 1436.98 1669.33 1456.19 1653.28 1475.08 1636.28 C 1467.42 1620.02 1455.04 1605.23 1445.63 1589.83 z"/>
<path transform="translate(0,0)" fill="rgb(254,254,254)" d="M 1864.86 654.931 C 1865.56 655.672 1865.54 656.473 1865.76 657.454 C 1864.85 659.814 1864.1 661.332 1864.18 663.921 L 1867.57 659.99 C 1870.44 659.921 1871.34 661.183 1873.61 662.776 C 1875.76 662.333 1877.43 661.777 1879.58 662.454 C 1879.58 662.455 1879.58 662.456 1879.58 662.457 C 1878.89 663.726 1878.15 665.01 1877.57 666.338 C 1876.53 668.726 1875.81 669.867 1876.78 672.434 C 1879.11 673.045 1880.72 673.209 1882.33 675.129 C 1882.35 676.335 1882.43 676.411 1882.04 677.749 C 1879.53 686.388 1857.34 699.63 1849.58 704.732 C 1852.98 694.021 1864.22 679.281 1862.44 667.95 C 1862.37 668.343 1862.32 668.739 1862.25 669.13 C 1862.12 669.779 1861.96 670.422 1861.82 671.069 C 1858.01 688.649 1839.41 706.6 1831.22 723.595 C 1822.79 741.108 1818.52 760.061 1813.08 778.622 C 1810.21 787.031 1807.61 795.586 1806.49 804.429 C 1806 808.243 1807.08 817.332 1805.02 819.824 L 1802.97 819.499 C 1798.73 815.079 1796.01 808.804 1793.13 803.403 C 1782.08 782.648 1778.61 767.415 1778.65 743.94 C 1794.28 718.324 1813.5 704.673 1834.82 684.429 C 1845.01 674.749 1854.24 664.173 1864.86 654.931 z"/>
<path transform="translate(0,0)" fill="rgb(254,254,254)" d="M 560.936 1053.77 C 562.207 1055.01 562.282 1055.52 562.643 1057.33 C 571.446 1101.37 584.413 1144.76 593.651 1188.77 C 595.726 1198.66 599.602 1210.99 598.985 1221.12 C 598.246 1233.25 594.107 1245.91 591.261 1257.68 A 539.444 539.444 0 0 0 582.287 1301.02 C 581.41 1306.33 580.327 1311.46 578.958 1316.66 C 571.905 1263.68 562.535 1211.11 560.33 1157.57 C 559.448 1136.16 560.12 1114.72 560.745 1093.31 C 560.98 1085.27 562.294 1076.5 561.831 1068.55 C 561.713 1066.53 561.488 1065.78 560.314 1064.18 C 558.709 1063.73 557.16 1063.26 555.606 1062.65 C 556.159 1059.43 559.01 1056.38 560.936 1053.77 z"/>
<path transform="translate(0,0)" fill="rgb(254,254,254)" d="M 415.081 1195.61 C 421.493 1199.93 451.58 1264.71 456.273 1276.39 C 442.697 1337.07 479.48 1465.48 498.673 1523.79 C 507.386 1550.27 517.661 1576.28 527.079 1602.52 L 526.78 1603 L 525.744 1602.89 C 509.797 1582.68 492.867 1542.56 483.626 1517.98 C 471.979 1487.01 460.9 1456.28 452.487 1424.24 C 432.847 1349.43 424.435 1272.16 415.081 1195.61 z"/>
<path transform="translate(0,0)" fill="rgb(254,254,254)" d="M 566.488 1368.75 C 567.052 1369.68 567.445 1370.97 567.692 1371.98 C 570.564 1383.8 571.123 1397.37 572.818 1409.5 L 584.356 1486.49 C 591.475 1531.78 600.938 1576.78 608.383 1622.05 A 1326.38 1326.38 0 0 1 625.153 1779.29 C 625.367 1784.78 627.501 1802.21 624.557 1806.49 L 622.838 1806.5 C 620.157 1801.3 614.024 1721.67 612.5 1708.29 C 610.415 1690.73 602.236 1608.27 597.317 1596.77 C 594.707 1595.92 593.659 1598.84 590.798 1599.14 C 587.471 1589.11 586.245 1577.51 584.435 1567.09 L 574.757 1511.42 C 571.554 1540.1 574.025 1575.42 576.323 1604.36 C 573.119 1606.12 569.693 1607.56 566.381 1609.1 C 562.963 1599.36 556.419 1590.88 554.456 1580.64 C 546.744 1540.39 557.854 1410.63 566.488 1368.75 z"/>
<path transform="translate(0,0)" fill="rgb(254,254,254)" d="M 669.595 904.808 C 669.689 905.848 655.278 959.63 653.926 966.246 A 8325.36 8325.36 0 0 0 631.971 1081.18 C 626.771 1108.24 621.024 1135.18 616.045 1162.29 C 615.125 1153.02 613.388 1143.86 611.801 1134.69 C 603.92 1098.98 595.195 1061.84 582.435 1027.58 C 610.378 985.846 640.158 945.478 669.595 904.808 z"/>
<path transform="translate(0,0)" fill="rgb(254,254,254)" d="M 1090.13 1677.09 L 1090.9 1678.09 C 1051.19 1715 1013.51 1731.21 995.494 1788.57 C 1003.92 1776.28 1012.29 1765.77 1024.78 1757.39 C 1040.2 1747.05 1067.8 1733.86 1086.92 1737.61 C 1087.15 1739.82 1086.8 1739.89 1085.31 1741.46 C 1082.33 1744.6 1078.29 1747.11 1074.92 1749.84 C 1063.56 1759.08 1051.19 1769.41 1043.92 1782.28 C 1043.71 1782.65 1043.51 1783.03 1043.3 1783.41 C 1046.78 1781.55 1050.48 1779.73 1054.19 1778.37 C 1074.36 1770.98 1100.26 1776.4 1119.19 1785.15 C 1093.05 1794.17 1066.07 1801.19 1039.82 1810.13 C 1060.91 1797.52 1081.6 1789.79 1105.8 1785.53 C 1096.52 1784.87 1087.06 1785.38 1077.75 1785.52 C 1049.89 1786.05 1024.04 1795.61 999.441 1808.09 C 1010.72 1793.14 1023.58 1779.88 1036.01 1765.93 C 1026.26 1772.24 1003.02 1784.5 996.384 1792.46 C 992.452 1797.17 990.475 1803.66 986.618 1808.65 C 983.819 1809.23 983.686 1809.37 981.136 1808.15 C 976.318 1801.72 977.899 1789.67 977.851 1781.9 C 968.498 1790.23 962.868 1798.21 957.273 1809.39 C 958.039 1792.59 962.312 1776.42 967.133 1760.41 C 953.075 1774.47 942.367 1789.91 931.562 1806.48 C 933.207 1800.37 934.848 1794.28 937.37 1788.47 C 963.47 1728.26 1033.16 1699.94 1090.13 1677.09 z"/>
<path transform="translate(0,0)" fill="rgb(254,254,254)" d="M 1417.81 1414.35 C 1425.95 1418.85 1433.54 1424.78 1441.11 1430.18 C 1491.84 1466.31 1527.47 1512.76 1563.29 1562.97 C 1572.23 1575.51 1583.21 1588.31 1590.71 1601.61 L 1590 1603.09 C 1575.12 1589.02 1539.8 1566.18 1521.18 1556.36 C 1508.06 1549.44 1493.22 1544.58 1481.63 1535.17 C 1470.22 1525.91 1461.64 1513.16 1452.33 1501.9 C 1441.74 1489.08 1431.5 1477.25 1424.86 1461.77 C 1418.94 1447.98 1411.98 1428.88 1417.81 1414.35 z"/>
<path transform="translate(0,0)" fill="rgb(254,254,254)" d="M 607.475 1266.8 C 607.816 1267.26 608.24 1267.67 608.499 1268.18 C 611.562 1274.24 617.689 1308.84 620.085 1318.98 C 626.797 1347.36 634.131 1375.59 640.612 1404.03 C 645.878 1427.13 650.298 1450.44 655.251 1473.62 C 659.417 1493.11 664.966 1512.47 668.067 1532.16 C 670.283 1546.23 671.332 1560.49 669.231 1574.61 C 664.821 1559.99 662.868 1544.39 659.097 1529.53 A 390.824 390.824 0 0 0 611.011 1418.57 L 609.556 1417.47 C 609.06 1421.45 624.477 1453.84 626.971 1460.7 C 629.515 1467.7 631.321 1474.99 633.025 1482.23 C 640.801 1515.29 639.102 1549.46 636.902 1583.11 C 633.584 1573.26 631.296 1562.76 628.529 1552.72 C 616.995 1510.9 608.174 1468.8 599.858 1426.24 C 596.119 1407.11 589.632 1385.16 590.561 1365.63 C 591.118 1353.91 594.917 1341.3 597.023 1329.67 A 5147.02 5147.02 0 0 0 607.475 1266.8 z"/>
<path transform="translate(0,0)" fill="rgb(254,254,254)" d="M 754.985 893.575 C 768.519 892.537 782.115 892.806 795.677 892.889 C 758.868 928.642 720.827 966.968 692.192 1009.75 C 674.062 1036.84 660.046 1065.14 646.606 1094.75 C 642.449 1104.77 638.371 1114.82 633.816 1124.66 C 640.508 1096.7 645.591 1068.32 651.546 1040.2 A 3790.53 3790.53 0 0 1 682.571 905.217 C 706.204 899.298 730.777 896.02 754.985 893.575 z"/>
<path transform="translate(0,0)" fill="rgb(254,254,254)" d="M 495.525 450.638 C 495.857 450.962 496.263 451.224 496.522 451.609 C 500.501 457.505 501.68 482.282 502.592 490.114 C 508.687 542.44 512.838 595.624 510.855 648.357 C 509.047 696.44 502.984 744.286 501.664 792.437 C 498.732 779.198 497.074 765.691 494.083 752.414 C 479.805 697.844 465.149 642.822 443.525 590.631 C 450.767 553.681 476.706 483.81 495.525 450.638 z"/>
<path transform="translate(0,0)" fill="rgb(254,254,254)" d="M 404.202 972.758 C 410.071 978.002 416.917 993.779 421.023 1000.97 C 448.2 1048.56 473.837 1096.01 497.113 1145.64 C 486.827 1175.29 473.267 1203.09 465.545 1233.68 C 462.435 1244.79 459.872 1255.97 457.338 1267.22 C 451.488 1248.24 444.484 1229.84 435.307 1212.21 C 428.725 1199.56 418.66 1185.52 414.562 1171.96 C 410.365 1158.07 410.602 1141.42 409.544 1126.96 C 405.781 1075.51 404.737 1024.32 404.202 972.758 z"/>
<path transform="translate(0,0)" fill="rgb(254,254,254)" d="M 508.108 1156.38 C 509.524 1157.61 510.682 1158.75 511.78 1160.28 C 521.986 1174.53 543.962 1215.1 549.079 1231.11 C 552.429 1241.59 552.586 1253.1 553.997 1263.96 C 558.379 1297.73 565.043 1332.33 559.072 1366.38 C 557.403 1353.78 557.129 1341.38 554.529 1328.81 C 548.91 1301.65 538.767 1276.04 529.628 1249.97 C 523.84 1233.46 518.768 1216.65 513.363 1200 L 513.593 1198.92 L 512.342 1198.07 C 513.071 1208.61 516.029 1218.66 517.984 1228.96 C 525.656 1269.37 536.508 1309.06 545.673 1349.19 C 548.118 1359.89 552.932 1371.17 553.962 1382.04 C 555.329 1396.48 549.637 1413.68 548.015 1428.21 A 1398.93 1398.93 0 0 0 541.659 1512.25 C 540.172 1528.08 540.827 1544.35 540.97 1560.24 C 531.243 1534.22 520.739 1508.65 511.671 1482.36 C 508.366 1472.78 504.254 1462.73 502.24 1452.8 C 499.515 1439.38 501.779 1423.09 502.354 1409.32 C 504.44 1359.42 505.981 1307.22 518.044 1258.6 C 494.9 1300.99 488.296 1349.54 487.871 1397.12 C 463.827 1291.29 470.194 1255.56 508.108 1156.38 z"/>
<path transform="translate(0,0)" fill="rgb(254,254,254)" d="M 419.415 721.57 C 419.677 721.767 419.954 721.947 420.203 722.161 C 432.559 732.812 489.028 827.001 494.259 845.275 C 497.291 855.868 497.228 867.491 498.349 878.417 L 504.646 937.244 C 507.987 967.06 510.803 997.001 514.789 1026.73 C 517.41 1046.29 521.286 1065.69 523.563 1085.29 C 520.722 1092.5 516.493 1103.55 511.453 1109.4 C 498.639 1086.45 487.881 1062.33 475.434 1039.16 C 468.912 1027.02 461.413 1015.43 454.568 1003.47 C 438.662 975.688 423.005 948.205 405.685 921.25 A 2242.46 2242.46 0 0 1 413.277 779.722 C 414.919 760.52 415.713 740.469 419.415 721.57 z"/>
<path transform="translate(0,0)" fill="rgb(254,254,254)" d="M 978.65 805.523 A 1563.56 1563.56 0 0 1 1167.35 810.823 C 1204.15 814.099 1240.89 819.869 1277.79 821.656 C 1263.15 826.177 1246.65 827.391 1231.46 829.63 L 1155.08 841.307 C 1081.05 853.071 1007.58 867.835 933.222 877.624 C 911.081 880.683 888.449 883.681 866.089 884.166 C 848.095 884.556 829.661 883.237 811.687 882.259 C 817.021 875.694 821.676 868.91 826.043 861.67 L 804.364 883.26 C 767.922 883.637 720.483 884.476 685.494 894.708 C 686.634 891.04 687.752 887.23 689.938 884.026 C 700.092 869.149 735.7 837.834 750.618 826.248 C 772.256 824.274 793.7 820.628 815.27 818.042 C 869.272 811.567 924.214 805.939 978.65 805.523 z"/>
<path transform="translate(0,0)" fill="rgb(254,254,254)" d="M 803.331 893.249 C 811.405 893.253 819.293 893.378 827.322 894.283 C 823.743 911.189 823.165 929.195 821.828 946.424 A 3947.12 3947.12 0 0 1 815.103 1027.5 C 809.817 1082.29 800.457 1135.57 789.122 1189.37 C 784.047 1213.46 779.177 1237.85 772.655 1261.59 C 766.572 1214.57 758.131 1167.85 751.923 1120.84 A 1822.57 1822.57 0 0 1 746.224 1072.58 C 744.93 1060.31 744.267 1047.33 741.15 1035.37 C 741.164 1070.25 733.587 1104.47 735.049 1139.5 C 737.375 1195.23 752.072 1248.75 758.281 1303.83 C 754.549 1312.61 749.87 1321.13 745.614 1329.67 C 732.364 1357.96 719.127 1387.53 708.651 1416.95 C 701.893 1435.93 696.744 1455.33 691.031 1474.63 C 682.149 1446.36 675.315 1417.22 667.987 1388.5 A 5620.38 5620.38 0 0 1 636.637 1262.44 C 632.409 1244.44 628.908 1226.25 624.305 1208.35 C 640.65 1159.88 660.314 1111.42 686.011 1067.08 C 707.204 1030.51 732.553 995.621 756.017 960.422 A 859.563 859.563 0 0 1 781.557 924.548 C 789.093 914.466 797.469 904.42 803.331 893.249 z"/>
<path transform="translate(0,0)" fill="rgb(254,254,254)" d="M 1497.43 815.6 C 1516.4 813.883 1535.99 814.713 1555.02 814.836 C 1608.34 815.18 1660.82 818.678 1713.82 824.508 C 1736.25 826.976 1759.15 828.981 1781.25 833.566 A 2200.51 2200.51 0 0 1 1803.26 882.378 C 1782.3 896.908 1766.92 914.68 1755.32 937.151 C 1760.28 919.465 1767.23 902.408 1772.05 884.656 C 1760.65 901.649 1757.87 920.02 1748.88 936.371 C 1748.28 937.469 1747.58 938.014 1746.51 938.607 C 1738.97 925 1736.52 895.37 1734.64 879.565 C 1731.44 899.577 1733.07 921.122 1733.35 941.378 C 1729.32 941.884 1725.14 941.809 1721.08 941.921 C 1719.4 929.925 1716.28 918.51 1712.98 906.887 C 1712.93 916.65 1714.08 928.46 1711.86 937.958 C 1711.23 940.624 1710.83 942.023 1708.54 943.544 C 1705.98 943.217 1703.14 923.147 1694.57 916.635 L 1693.95 917.547 C 1696.66 926.846 1697.62 936.499 1698.68 946.092 C 1691.16 930.504 1684.26 914.548 1677.03 898.815 C 1679.08 914.503 1682.2 930.071 1684.47 945.742 C 1680.44 946.372 1676.37 946.681 1672.31 947.051 C 1668.79 932.511 1660.67 918.309 1653.67 905.115 C 1656.8 919.912 1662.3 934.007 1666.07 948.64 L 1653.22 949.995 C 1648.82 935.416 1643.77 921.392 1637.51 907.505 C 1637.15 913.539 1636.37 920.185 1636.93 926.178 C 1637.51 932.336 1643.75 946.562 1640.73 951.641 C 1638.67 952.112 1637.97 952.302 1635.85 951.834 C 1632.64 944.469 1633.33 935.252 1631.19 927.424 C 1629.95 930.289 1630.06 933.416 1628.79 936.299 C 1625.91 942.818 1618.4 952.753 1611.78 955.561 C 1610.36 955.082 1609.67 955.291 1609.04 953.763 C 1604.71 943.331 1612.47 905.447 1617.59 894.694 L 1616.99 895.38 C 1605.96 908.384 1598.64 923.448 1591.5 938.846 C 1588.68 944.937 1586.2 952.461 1582.04 957.732 C 1579.69 958.532 1579.42 959.115 1576.99 958.245 C 1576.32 950.814 1578.2 942.704 1579.03 935.261 C 1581.09 916.585 1583.3 897.31 1581.22 878.562 C 1577.82 897.28 1574.35 935.935 1565.88 951.132 C 1566.78 928.071 1564.06 905.913 1558.41 883.599 C 1558.12 897.16 1560.06 910.695 1560.51 924.236 C 1560.74 931.365 1559.87 938.313 1559.65 945.411 C 1559.51 949.931 1560 955.631 1558.55 959.868 C 1557.84 961.981 1557.39 962.031 1555.49 962.876 C 1552.14 959.045 1547.08 926.456 1545 919.078 C 1539.34 898.968 1531.85 879.413 1520.86 861.583 C 1524.84 881.875 1548.59 948.737 1544.9 963.407 C 1541.65 957.039 1540.47 949.516 1537.96 942.756 C 1532.96 930.2 1529.25 916.201 1522.44 904.538 C 1525.56 919.788 1532.47 943.999 1532.46 958.818 C 1532.46 962.477 1532.21 963.519 1529.65 966.12 C 1527.8 966.425 1526.91 966.962 1525.18 966.117 C 1521.57 960.753 1524.98 948.237 1525.46 941.624 C 1521.99 948.49 1517.81 964.939 1511.85 968.926 L 1510.68 968.211 C 1507.46 958.387 1511.41 931.032 1512.95 919.847 C 1507.75 931.503 1502.56 946.448 1500.19 959.007 C 1492.74 929.776 1484.12 901.902 1467.93 876.172 C 1472.97 899.975 1483.91 929.972 1491.32 953.948 C 1467.47 916.98 1442.7 889.13 1402.85 869.216 C 1434.73 894.78 1449.56 914.518 1472.3 948.065 C 1457.82 939.748 1442.04 934.931 1425.64 932.062 C 1386.68 925.247 1346.34 925.618 1306.99 922.179 L 964.287 895.63 C 944.706 893.925 923.692 894.608 904.467 891.08 C 954.495 884.758 1005.07 877.617 1054.77 869.108 C 1101.56 861.1 1147.89 851.7 1194.9 844.88 A 3204.66 3204.66 0 0 1 1410.22 820.56 C 1439.25 818.339 1468.38 817.516 1497.43 815.6 z"/>
</svg>