<svg version="1.1" xmlns="http://www.w3.org/2000/svg" style="display: block;" viewBox="0 0 2048 2048" width="1024" height="1024">
<path transform="translate(0,0)" fill="rgb(254,254,254)" d="M 0 0 L 2048 0 L 2048 2048 L 0 2048 L 0 0 z"/>
<path transform="translate(0,0)" fill="rgb(45,43,44)" d="M 316.434 1606.47 C 321.206 1610.33 323.627 1617.38 326.112 1622.88 C 322.41 1626.4 318.871 1628.95 314.516 1631.55 C 311.616 1632.93 308.508 1634.03 305.521 1635.22 C 307.546 1624.51 310.416 1615.67 316.434 1606.47 z"/>
<path transform="translate(0,0)" fill="rgb(45,43,44)" d="M 1357.26 1614.25 C 1360.3 1613.93 1362.58 1613.53 1365.46 1614.85 C 1370.24 1619.46 1369.54 1626.14 1369.94 1632.35 C 1365.84 1634.28 1361.51 1635.63 1357.23 1637.1 C 1353.34 1638.25 1351.31 1639.4 1347.33 1638.36 C 1345.99 1637.06 1344.81 1636.02 1344.27 1634.16 C 1342.99 1629.8 1345.27 1624.49 1347.55 1620.84 C 1350.18 1616.65 1352.53 1615.43 1357.26 1614.25 z"/>
<path transform="translate(0,0)" fill="rgb(45,43,44)" d="M 1785.31 907.358 C 1796.36 911.35 1806.86 916.869 1817.1 922.574 C 1812.61 924.14 1807.97 925.36 1803.39 926.693 C 1793.5 928.914 1783.58 930.232 1773.54 931.539 C 1777.8 923.641 1781.52 915.485 1785.31 907.358 z"/>
<path transform="translate(0,0)" fill="rgb(45,43,44)" d="M 562.22 1570.46 C 563.279 1570.92 564.518 1571.39 565.482 1572.06 C 573.022 1577.26 573.947 1589.53 575.376 1597.8 C 570.627 1600.3 566.029 1602.08 560.956 1603.77 C 557.39 1604.72 553.696 1605.36 550.08 1606.11 C 552.826 1593.41 555.082 1581.54 562.22 1570.46 z"/>
<path transform="translate(0,0)" fill="rgb(45,43,44)" d="M 1642.01 866.653 C 1648.78 872.497 1654.69 881.298 1660.93 887.891 C 1669.52 896.977 1680.7 905.153 1687.87 915.314 C 1671.73 913.874 1653.13 897.382 1642.22 886.434 C 1641.84 879.882 1642.03 873.221 1642.01 866.653 z"/>
<path transform="translate(0,0)" fill="rgb(45,43,44)" d="M 1793.25 886.232 C 1808.03 890.859 1823.75 898.542 1837.85 905.045 C 1840.03 906.048 1845.51 908.128 1846.33 910.342 L 1842.64 912.439 C 1841.32 913.291 1839.86 914.338 1838.4 914.918 C 1833.08 917.03 1799.33 899.905 1791.49 897.241 L 1789.84 896.689 L 1793.25 886.232 z"/>
<path transform="translate(0,0)" fill="rgb(45,43,44)" d="M 963.897 1638 C 965.385 1637.93 967.038 1637.78 968.514 1637.99 C 973.059 1638.63 977.661 1642.01 980.136 1645.82 C 982.096 1648.84 982.95 1653.51 981.759 1656.98 C 980.084 1661.85 975.755 1663.44 971.541 1665.7 L 961.758 1671.44 C 958.996 1665.08 955.726 1658.07 956.276 1650.98 C 956.739 1645.01 959.385 1641.66 963.897 1638 z"/>
<path transform="translate(0,0)" fill="rgb(45,43,44)" d="M 1230.11 1614.6 C 1233.27 1615.14 1235.88 1616.6 1238.45 1618.47 C 1247.4 1624.98 1250.48 1635.08 1252.36 1645.44 C 1243.23 1644.98 1234.29 1644.3 1225.23 1643.08 C 1216.58 1642.34 1207.64 1640.09 1199.3 1637.71 C 1211.56 1632.23 1220.72 1624.02 1230.11 1614.6 z"/>
<path transform="translate(0,0)" fill="rgb(45,43,44)" d="M 836.423 1648.93 C 840.13 1648.87 843.07 1649.33 846.387 1651.1 C 857.508 1657.04 861.754 1669.79 864.973 1681.13 C 857.915 1680.78 851.058 1679.93 844.086 1678.81 C 833.453 1676.76 823.224 1674.93 813.52 1669.95 C 820.165 1660.33 825.309 1653.69 836.423 1648.93 z"/>
<path transform="translate(0,0)" fill="rgb(45,43,44)" d="M 510.284 1586.08 C 522.354 1585.31 532.207 1591.51 541.265 1599.04 C 543.909 1601.23 545.363 1602.64 545.735 1606.09 C 541.631 1609.72 527.806 1610.65 521.915 1611.72 C 510.284 1613.98 497.94 1614.5 486.119 1614.95 C 487.094 1611.49 488.164 1608.06 489.654 1604.78 C 493.989 1595.25 500.652 1589.76 510.284 1586.08 z"/>
<path transform="translate(0,0)" fill="rgb(45,43,44)" d="M 192.239 1609.04 C 196.079 1608.89 199.397 1608.72 202.942 1610.39 C 216.654 1616.84 221.342 1632.17 226.147 1645.33 C 219.407 1644.15 212.612 1643.18 205.85 1642.12 C 195.819 1639.59 179.95 1637.36 172.354 1629.89 C 171.509 1627.29 171.057 1626.27 172.405 1623.62 C 175.21 1618.12 186.617 1611.6 192.239 1609.04 z"/>
<path transform="translate(0,0)" fill="rgb(45,43,44)" d="M 1690.94 611.081 C 1712.66 620.408 1730.3 632.021 1754.71 632.303 C 1748.99 636.564 1743.02 640.339 1736.98 644.128 C 1721.17 652.59 1705.4 655.64 1687.65 657.339 L 1690.94 611.081 z"/>
<path transform="translate(0,0)" fill="rgb(45,43,44)" d="M 265.79 1612.34 C 271.297 1612.17 277.552 1612.56 282.762 1614.47 C 292.966 1618.23 297.34 1626.64 301.404 1636 C 289.863 1639.61 278.161 1642.01 266.227 1643.9 C 254.417 1645.05 242.636 1645.19 230.782 1645.37 C 233.51 1638.17 236.392 1631 241.245 1624.92 C 247.815 1616.68 255.656 1613.55 265.79 1612.34 z"/>
<path transform="translate(0,0)" fill="rgb(45,43,44)" d="M 1505.79 421.14 C 1510.12 420.812 1515.03 420.417 1519.26 421.542 C 1532.98 425.198 1540.91 437.352 1547.37 449.036 C 1536.85 452.646 1525.95 455.306 1515.23 458.24 C 1513.44 458.667 1511.38 459.341 1509.53 458.833 C 1500.9 456.459 1485.48 445.449 1474.55 441.366 C 1482.63 430.487 1493.01 424.632 1505.79 421.14 z"/>
<path transform="translate(0,0)" fill="rgb(45,43,44)" d="M 1272.78 433.423 C 1294.3 436.49 1315.36 459.706 1328.76 475.253 L 1318.49 479.049 C 1311.22 481.51 1304.66 484.194 1297.94 487.931 C 1294.88 486.848 1291.75 485.783 1288.83 484.339 A 36.125 36.125 0 0 1 1270.52 463.044 C 1267.4 453.328 1267.91 442.428 1272.78 433.423 z"/>
<path transform="translate(0,0)" fill="rgb(45,43,44)" d="M 1647.3 603.118 C 1658.94 602.081 1668.69 603.577 1679.77 607.012 C 1680.26 618.904 1679.38 645.381 1673.39 655.348 L 1671.07 655.438 C 1666.62 652.887 1663.35 649.171 1659.81 645.525 C 1645.24 632.763 1633.24 625.887 1613.92 622.573 C 1623.82 611.886 1633.34 606.552 1647.3 603.118 z"/>
<path transform="translate(0,0)" fill="rgb(45,43,44)" d="M 910.951 1649.08 C 915.338 1648.89 919.651 1648.7 923.987 1649.59 C 938.493 1652.59 947.333 1662.55 955.223 1674.25 C 942.041 1678.34 928.862 1680.78 915.235 1682.73 C 900.627 1684.08 886.259 1683.59 871.686 1682.1 C 871.809 1681.87 871.924 1681.64 872.054 1681.41 C 881.282 1665.47 892.997 1654.28 910.951 1649.08 z"/>
<path transform="translate(0,0)" fill="rgb(45,43,44)" d="M 1302.6 1612.26 C 1308.32 1612.52 1313.85 1613.43 1319.12 1615.77 C 1330.79 1620.97 1336.25 1631.08 1340.46 1642.44 C 1327.33 1646.15 1313.79 1646.92 1300.25 1647.95 C 1286.86 1648.36 1273.69 1646.54 1260.5 1646.68 L 1261.33 1645.48 C 1271.79 1630.73 1283.65 1615.35 1302.6 1612.26 z"/>
<path transform="translate(0,0)" fill="rgb(45,43,44)" d="M 1638.6 808.836 C 1646.24 814.985 1652.51 824.319 1659.55 831.335 A 260.047 260.047 0 0 0 1724.55 877.837 C 1721.01 883.332 1716.73 888.435 1712.71 893.587 C 1709.06 897.843 1705.32 901.899 1701.35 905.863 C 1667.04 878.098 1643.78 853.79 1638.6 808.836 z"/>
<path transform="translate(0,0)" fill="rgb(45,43,44)" d="M 1260.47 553.122 C 1264.93 550.261 1266.79 543.062 1269.37 538.507 C 1281.4 517.278 1301.08 495.28 1325.08 488.053 C 1330.06 486.553 1337.76 484.085 1342.88 485.274 C 1343.93 485.516 1344.35 485.877 1345.16 486.42 C 1345.34 489.165 1344.66 489.458 1343.29 491.737 C 1323.5 520.167 1305.48 545.261 1275.16 563.787 L 1260.47 553.122 z"/>
<path transform="translate(0,0)" fill="rgb(45,43,44)" d="M 1807.92 365.909 C 1813.58 366.478 1819 367.664 1824.34 369.627 C 1840.71 375.647 1855.8 385.326 1869.6 395.86 C 1910.55 427.103 1923.71 452.542 1944.34 497.963 C 1950.26 510.993 1950.95 521.029 1946.05 534.382 L 1944.13 537.548 L 1942.66 537.72 C 1942.38 536.991 1942.09 536.265 1941.82 535.531 C 1941.48 534.609 1941.17 533.676 1940.82 532.756 C 1935.5 518.627 1925.89 507.617 1912.02 501.418 C 1910.7 495.036 1909.23 488.74 1907.39 482.486 C 1890.36 424.514 1859.49 394.141 1807.92 365.909 z"/>
<path transform="translate(0,0)" fill="rgb(45,43,44)" d="M 1904.39 513.919 C 1906.6 513.736 1908.9 513.474 1911.03 514.281 C 1922.14 518.487 1930.3 533.564 1935.08 543.773 C 1926.03 550.326 1917.57 557.632 1908.34 563.97 C 1886.72 578.819 1863.84 588.393 1839.23 596.919 C 1831.11 599.858 1822.97 602.436 1814.67 604.802 C 1823.33 596.658 1831.55 588.333 1839.28 579.282 C 1857.9 557.455 1878.11 526.555 1904.39 513.919 z"/>
<path transform="translate(0,0)" fill="rgb(45,43,44)" d="M 1760.92 756.296 L 1763.31 757.188 C 1779.81 774.91 1784.04 815.291 1784.99 838.948 C 1786.24 869.992 1780.38 907.567 1758.39 931.352 C 1748.6 930.146 1738.94 928.614 1729.23 926.916 C 1720.4 925.493 1711.46 923.153 1702.95 920.444 C 1709.01 916.768 1713.81 912.671 1718.49 907.375 C 1744.4 878.028 1763.13 829.205 1764.04 789.874 C 1764.3 778.689 1761.62 767.462 1760.92 756.296 z"/>
<path transform="translate(0,0)" fill="rgb(45,43,44)" d="M 1871.53 725.566 C 1883.4 738.053 1890.95 767.147 1894.11 783.67 C 1901.13 820.384 1899.18 868.097 1877.49 899.981 L 1863.79 904.013 C 1855.39 898.584 1845.43 894.838 1836.33 890.68 A 1056.52 1056.52 0 0 0 1801.43 875.808 A 388.686 388.686 0 0 0 1808.26 874.26 C 1830.66 868.94 1845.38 857.07 1857.31 837.534 C 1877.88 803.821 1880.79 763.36 1871.53 725.566 z"/>
<path transform="translate(0,0)" fill="rgb(45,43,44)" d="M 1609.48 633.147 C 1629.34 635.229 1643.6 643.946 1657.59 657.874 C 1656.64 671.851 1656.3 686.113 1658.66 699.973 C 1666.97 748.946 1705.01 800.546 1744.98 828.779 C 1742.55 839.447 1737.89 849.637 1733.68 859.7 C 1732.33 862.784 1730.73 865.775 1729.22 868.78 C 1694.67 852.369 1656.49 821.55 1634.99 789.586 C 1620.82 768.511 1606.93 703.766 1605.74 677.91 C 1605.05 662.79 1606.49 647.96 1609.48 633.147 z"/>
<path transform="translate(0,0)" fill="rgb(45,43,44)" d="M 384.998 1329.94 C 417.234 1344.3 451.308 1353.75 485.622 1361.59 C 472.767 1382.88 460.551 1403.96 452.429 1427.61 C 449.188 1437.05 447.077 1446.75 444.371 1456.34 C 433.774 1459.78 423.268 1460.9 412.198 1461.75 C 412.445 1461.84 412.691 1461.94 412.94 1462.03 L 414.185 1462.47 C 425.861 1466.71 435.885 1463.24 447.221 1465.31 C 449.262 1465.69 449.822 1467.29 450.967 1468.81 C 451.135 1471.34 451.336 1472.08 449.712 1474.21 C 443.402 1482.51 425.781 1484.54 416.229 1485.08 C 418.2 1486.18 417.309 1485.87 419.572 1486.35 C 433.785 1489.36 443.459 1485.86 455.114 1478.05 C 470.501 1503.91 490.659 1526.09 518.743 1538.31 C 536.46 1546.02 549.145 1546.12 561.981 1562.36 C 555.009 1567.28 552.708 1571.23 550.252 1579.4 L 545.784 1596.67 C 545.486 1596.28 545.18 1595.89 544.889 1595.5 C 544.365 1594.79 543.876 1594.05 543.346 1593.34 C 537.558 1585.61 528.225 1580.14 518.594 1579.11 A 33.1914 33.1914 0 0 0 494.008 1586.48 C 484.913 1594.08 483.175 1602.75 482.301 1613.86 C 459.37 1613.62 428.327 1610.72 409.293 1596.41 C 391.32 1582.91 385.455 1558.5 372.713 1540.6 C 363.131 1527.13 349.85 1515.22 337.789 1503.98 C 330.156 1496.87 312.515 1483.72 310.81 1473 C 308.918 1461.1 316.85 1446.32 318.641 1434.35 C 320.81 1419.85 319.669 1404.68 317.832 1390.22 C 335.755 1368.18 363.249 1348.59 384.998 1329.94 z"/>
<path transform="translate(0,0)" fill="rgb(45,43,44)" d="M 1271.61 1216.77 C 1273.12 1227.88 1271.65 1240.84 1271.04 1252.07 C 1269.11 1287.65 1264.1 1321.63 1256.47 1356.43 C 1252.37 1375.12 1246.95 1393.6 1243.42 1412.4 A 164.978 164.978 0 0 0 1243.36 1472.51 C 1251.84 1520.63 1277.81 1553.88 1319.37 1578.75 C 1332.77 1586.76 1351.5 1591.34 1360.57 1604.64 C 1360.31 1606.75 1358.66 1606.48 1356.85 1607.13 C 1347.4 1610.52 1345.11 1616.15 1340.57 1624.64 C 1340.37 1624.38 1340.18 1624.11 1339.98 1623.85 L 1338.96 1622.56 C 1336.71 1619.64 1334.52 1617.09 1331.64 1614.76 C 1322.95 1607.77 1312.09 1603.38 1300.8 1604.99 C 1282.61 1607.59 1269.39 1624.75 1258.99 1638.36 C 1258.02 1634.13 1257.22 1629.72 1255.31 1625.79 C 1250.28 1615.43 1242.05 1610.37 1231.53 1606.82 C 1228.78 1608.65 1226.59 1611.51 1224.29 1613.88 C 1215.24 1623.21 1207.64 1629.23 1194.72 1632.22 C 1189.71 1631.01 1183.21 1629.97 1179.23 1626.49 C 1176.46 1624.06 1174.93 1619.81 1173.81 1616.41 C 1167.74 1597.94 1166.63 1577.55 1159.33 1557.13 C 1149.24 1528.88 1127.33 1509.67 1112.95 1484.23 C 1094.56 1451.7 1096.18 1416.98 1092.46 1381.15 A 6544.21 6544.21 0 0 1 1084.67 1308.99 C 1089.78 1309.11 1094.9 1309.22 1100 1308.96 C 1119.68 1307.97 1139.62 1303.44 1158.41 1297.66 C 1215.31 1280.18 1233.49 1258.81 1271.61 1216.77 z"/>
<path transform="translate(0,0)" fill="rgb(45,43,44)" d="M 1817.32 409.574 C 1789.36 396.828 1757.16 372.775 1725.3 384.535 C 1707.18 391.224 1690.27 403.894 1673.73 413.762 C 1636.36 436.056 1595.86 456.487 1553.25 466.326 C 1543.14 468.662 1528.56 472.768 1518.63 467.883 C 1517.04 467.102 1516.92 466.692 1515.93 465.348 L 1516.11 464.105 C 1525.64 461.158 1535.64 459.761 1545.28 457.173 C 1561.46 452.83 1578.22 446.619 1593.47 439.695 C 1607.14 433.488 1620.93 427.198 1634.11 419.991 C 1649.8 411.408 1664.65 401.063 1680.59 392.969 C 1720.56 372.672 1774.81 358.509 1817.02 380.53 A 157.043 157.043 0 0 1 1894.09 473.004 A 201.423 201.423 0 0 1 1900.7 502.269 C 1891.96 506.598 1884.43 511.274 1877.16 517.818 C 1836.38 554.532 1799.72 639.521 1731.57 616.936 C 1698.3 605.911 1663.13 579.024 1627.04 597.492 C 1609.27 606.59 1600.61 623.3 1589.01 638.509 C 1566.2 668.404 1535.83 675.205 1500.76 664.772 C 1483.31 659.58 1467.52 650.865 1451.57 642.287 C 1472.72 662.871 1508.14 681.437 1538.36 680.894 C 1559.52 680.513 1578.41 667.646 1592.42 652.715 A 99.4624 99.4624 0 0 0 1594.99 649.871 C 1594.67 672.066 1594.38 693.74 1598.72 715.645 C 1607.23 758.567 1631.33 808.196 1634.51 849.609 C 1635.46 861.871 1633.92 874.087 1632.76 886.282 C 1643.53 909.084 1667.82 922.505 1690.58 930.661 C 1741.22 948.802 1793.04 947.299 1842.81 927.51 C 1864.2 919.006 1884.38 909.556 1907.91 911.013 C 1913 914.551 1917.6 919.041 1918.83 925.409 C 1919.61 929.441 1917.8 933.265 1915.49 936.448 C 1904.91 951.029 1887.48 951.758 1873 959.716 C 1864.76 964.247 1857.46 971.254 1849.82 976.74 C 1827.51 992.758 1801.3 1002.03 1774.21 1005.67 C 1758.02 1007.85 1742.07 1007.62 1725.81 1008.3 C 1763.07 1016.35 1811.17 1011.22 1843.29 989.916 C 1846.72 987.643 1851.97 981.731 1855.72 981.011 C 1852.19 988.832 1823.72 1007.89 1815.79 1012.43 A 130.109 130.109 0 0 1 1796.26 1021.43 C 1748.61 1039.3 1695.22 1039.91 1648.65 1018.29 C 1641.03 1014.75 1632.75 1010.65 1625.82 1005.92 C 1621.46 1002.95 1616.61 997.543 1611.69 995.823 C 1603.81 993.068 1593.76 992.78 1585.46 991.778 C 1568.77 989.762 1551.95 988.088 1535.39 985.136 C 1448.5 969.649 1387.08 948.703 1329.77 876.737 C 1314.03 856.963 1299.86 835.853 1291.28 811.907 C 1282.37 787.019 1283.52 766.243 1294.82 742.455 C 1302.77 725.72 1311.99 709.665 1318.45 692.239 C 1330.48 659.775 1334.14 626.126 1337.37 591.916 C 1338.61 578.67 1340.3 564.858 1339.89 551.536 C 1336.75 564.366 1333.88 577.149 1331.92 590.217 C 1327.9 617.06 1325.87 644.335 1317.93 670.411 C 1310.88 693.535 1297.56 713.701 1285.9 734.628 C 1262.97 775.772 1270.95 813.689 1294.62 852.629 C 1339.42 926.342 1400.37 970.78 1484.27 990.875 C 1503.21 995.411 1522.76 999.527 1542.05 1002.16 C 1534.54 1008.64 1525.85 1014.1 1517.92 1020.1 C 1486.02 1044.25 1466.57 1054.86 1425.05 1051.94 C 1363.23 1047.59 1300.34 1010.25 1260.34 964.054 C 1220.87 918.469 1205.2 866.863 1197.59 808.147 C 1196.26 828.604 1197.59 850.357 1202.05 870.369 C 1209.9 905.622 1231.24 949.699 1254.92 976.833 A 264.234 264.234 0 0 0 1417.18 1064.52 C 1397.87 1083.31 1384.87 1089.34 1357.97 1089.02 C 1316.44 1088.51 1280.51 1070.82 1248.38 1045.9 C 1272.46 1078.93 1302.76 1095.66 1342.82 1102.39 C 1307.14 1120.56 1270.18 1122.44 1232.18 1110.02 A 168.616 168.616 0 0 1 1186.81 1087.13 C 1125.1 1043.03 1065.36 948.782 1031.75 881.708 A 745.291 745.291 0 0 1 996.088 798.887 C 991.455 785.974 981.663 751.29 976.06 741.756 C 993.197 852.934 1081.31 1029.17 1173.52 1096.97 C 1207.61 1122.04 1248.29 1137.57 1290.96 1131.09 C 1300.69 1129.62 1310.44 1127.14 1319.79 1124.07 C 1299.65 1167.36 1248.14 1230.72 1209.61 1258.24 C 1194.62 1268.95 1177.26 1277.11 1160.02 1283.45 C 1139.96 1290.82 1120.01 1295.02 1098.71 1296.35 C 1132.31 1270.77 1156.67 1234.23 1184.16 1202.59 C 1199.48 1184.95 1216.13 1169.51 1234.39 1154.97 C 1207.6 1169.24 1185.03 1186.54 1164.16 1208.56 C 1139.66 1234.41 1117.83 1263.2 1089.79 1285.5 C 1076.59 1296.01 1061.55 1304.03 1046.6 1311.75 C 1058.73 1269.66 1072.55 1227.96 1081.74 1185.08 C 1070.83 1203.17 1061.06 1221.75 1053.58 1241.54 C 1044.83 1264.71 1038.86 1288.31 1031.09 1311.73 C 1022.43 1337.84 1012 1363.33 1003.56 1389.52 C 995.301 1415.14 981.424 1466.78 967.58 1488.48 C 965.049 1492.45 961.806 1494.08 957.314 1495.29 C 941.069 1499.66 921.83 1494.79 906.422 1489.38 C 921.442 1500.01 936.643 1505.99 955.452 1502.64 C 957.865 1502.21 960.225 1501.55 962.587 1500.9 L 964.037 1500.52 C 953.628 1514.96 944.452 1527.06 925.644 1530.12 C 919.086 1531.18 912.214 1531.03 905.585 1531.03 C 918.782 1533.51 928.251 1535.08 941.337 1530.86 C 933.756 1545.77 922.33 1564.53 928.085 1581.8 C 932.741 1595.77 947.353 1607.86 958.218 1617.27 C 961.665 1620.26 966.694 1623.84 969.142 1627.73 C 970.445 1629.8 970.751 1629.97 969.817 1632.16 L 965.748 1631.48 C 960.914 1632.01 956.943 1632.61 953.718 1636.58 C 950.06 1641.09 949.282 1647.97 948.199 1653.51 C 938.463 1645.21 927.869 1641.14 914.922 1642.26 C 899.546 1643.6 885.815 1652.1 876.292 1663.99 C 873.94 1666.92 871.816 1670.01 869.756 1673.16 C 865.24 1662.33 860.293 1648.84 848.644 1643.82 C 843.479 1641.59 837.79 1641.78 832.619 1643.88 C 821.805 1648.26 814.665 1658.45 809.238 1668.29 C 799.033 1662.66 792.196 1655.38 789.123 1643.91 A 45.2801 45.2801 0 0 1 788.311 1640.29 C 781.373 1602.05 813.223 1562.83 828.888 1530.48 C 839.356 1508.86 848.71 1486.68 854.441 1463.29 C 859.828 1441.3 861.479 1418.47 865.207 1396.17 C 871.721 1357.2 886.397 1314.95 906.832 1281.17 C 908.72 1278.05 910.714 1274.97 912.399 1271.74 C 882.873 1303.49 864.069 1336.17 855.127 1378.84 C 852.046 1334.85 852.178 1281.93 882.875 1246.47 C 912.738 1211.98 975.023 1206.62 1016.73 1194.22 C 1048.77 1184.7 1082.55 1170.56 1108.31 1148.97 C 1082.39 1160.59 1057.02 1170.77 1029.4 1177.75 A 2371.14 2371.14 0 0 1 967.502 1192.31 C 913.909 1203.99 871.407 1215.05 850.222 1270.85 A 184.985 184.985 0 0 0 839.21 1318.44 C 807.355 1329.43 774.717 1336.23 741.574 1342.05 C 638.444 1360.17 521.817 1365.79 422.16 1328.17 C 413.612 1307.89 401.719 1288.75 391.2 1269.43 C 343.284 1181.4 269.244 1069.22 252.096 971.048 C 244.759 929.041 247.959 882.093 264.128 842.486 C 282.734 796.909 316.514 757.929 352.757 725.193 C 361.212 717.555 370.568 710.839 378.877 703.094 C 317.444 737.754 261.041 789.823 241.695 859.781 C 216.343 951.462 248.119 1032.72 288.364 1113.89 A 1809.04 1809.04 0 0 0 335.466 1203.42 C 348.244 1225.79 361.982 1247.61 374.829 1269.94 C 384.641 1287 393.439 1304.87 403.787 1321.59 C 308.87 1284.04 236.463 1222.45 186.549 1133.44 C 190.331 1147.34 196.943 1160.41 203.863 1172.98 C 233.856 1227.49 282.382 1275.39 336.476 1306.24 C 348.289 1312.98 360.748 1318.44 372.641 1324.97 C 361.601 1335.85 348.997 1345.25 337.349 1355.49 C 320.521 1370.29 304.413 1386.24 288.974 1402.47 C 279.242 1412.71 270.496 1423.67 262.04 1434.97 C 256.808 1441.95 251.87 1449.65 245.903 1455.97 C 225.236 1455.08 212.485 1446.87 195.509 1436.02 C 210.682 1452.3 226.11 1462.48 248.964 1463.36 C 248.547 1466.46 248.533 1472.53 245.947 1474.41 C 239.875 1478.83 229.498 1476.98 222.565 1475.57 C 213.027 1473.63 203.833 1470.11 194.911 1466.28 C 207.929 1478.83 224.689 1483.36 242.342 1482.99 L 243.95 1482.94 C 242.687 1504.77 245.982 1537.54 260.945 1554.79 C 277.048 1573.34 299.255 1577.31 312.585 1601.46 C 308.191 1608.03 304.882 1613.53 302.8 1621.25 C 294.471 1611.9 285.265 1605.75 272.319 1605 C 260.654 1604.33 249.205 1608.09 240.574 1616.03 C 235.441 1620.74 232.401 1626.26 229.2 1632.32 C 223.861 1620.52 218.411 1608.75 205.518 1603.64 C 202.899 1602.6 200.097 1602.01 197.354 1601.39 C 182.344 1605.69 172.575 1613.9 164.547 1627.17 C 157.363 1619.4 152.068 1610.93 149.473 1600.56 C 143.152 1575.32 150.057 1548.2 145.12 1522.49 C 139.567 1493.58 121.482 1466.5 122.504 1436.62 C 124.084 1390.46 170.792 1360.7 173.044 1313.78 C 174.491 1283.65 157.787 1235.61 149.601 1205.58 C 117.151 1086.52 125.376 986.425 166.526 870.857 C 151.16 895.964 138.371 922.492 130.756 951.024 A 392.951 392.951 0 0 0 120.592 1004 C 116.928 1033.23 119.711 1061.2 107.358 1088.87 C 105.451 1093.14 103.303 1098.17 99.43 1100.97 L 97.5271 1100.93 C 89.4573 1092.11 89.9889 1060.77 90.5044 1049.37 C 93.1717 990.395 116.051 926.177 148.726 877.095 C 160.688 859.126 174.901 843.019 187.758 825.734 C 213.523 791.095 226.91 770.073 259.615 740.396 C 348.918 659.361 467.813 631.489 585.4 627.688 C 601.705 627.161 618.412 625.974 634.711 626.498 C 635.249 626.516 635.786 626.569 636.324 626.604 C 619.956 630.068 603.321 631.941 586.942 635.324 C 514.753 650.234 437.125 675.693 394.731 740.452 C 391.819 744.901 389.283 749.45 386.932 754.215 C 401.597 737.087 416.121 722.113 434.536 708.836 C 509.976 654.444 620.604 643.31 710.069 629.257 C 733.369 625.598 756.578 620.862 779.771 616.569 C 809.953 610.983 840.26 605.597 870.198 598.796 C 886.411 595.113 903.403 591.241 919.184 586.033 C 935.048 580.798 950.465 574.106 966.246 568.603 C 993.97 558.936 1024.84 551.643 1054.11 549.287 C 1073.71 547.709 1093.06 548.361 1112.67 549.339 C 1068.18 595.348 1036.07 647.656 1037.21 713.71 C 1038.49 787.731 1091.86 866.418 1143.7 916.061 C 1176.41 947.391 1215.52 971.85 1254.23 995.003 C 1238.54 978.561 1222.63 962.264 1207.94 944.914 C 1166.99 896.562 1104.3 810.226 1106.13 744.764 C 1107.3 703.002 1125.28 665.198 1144.99 629.364 C 1117.1 661.257 1093.05 717.843 1095.83 760.612 C 1099.74 820.947 1143.79 882.506 1179.27 929.174 C 1123.71 880.877 1057.65 796.069 1052.26 720.48 C 1048.31 665.097 1073.19 612.554 1108.96 571.646 C 1144.68 530.803 1191.13 509.841 1244.99 506.543 C 1257.43 505.781 1269.89 505.8 1282.35 505.794 C 1272.36 516.069 1258.87 534.809 1258.54 549.746 L 1260.47 553.122 C 1241.16 541.916 1210.73 538.185 1189.12 543.87 C 1184.84 544.997 1179.49 547.113 1177.07 551.119 C 1174.05 556.107 1174.48 562.143 1176.15 567.52 C 1181.44 584.606 1194.7 601.574 1210.64 609.806 C 1215.85 612.495 1221.56 614.089 1227.24 615.466 C 1210.55 641.067 1208.11 671.269 1214.49 700.91 C 1215.75 706.757 1217.25 715.856 1220.59 720.603 L 1221.92 717.36 L 1220.32 717.714 C 1217.46 686.358 1213.95 648.866 1235.58 622.726 C 1241.72 615.308 1249.55 612.673 1258.96 612.054 C 1269 611.395 1277.81 613.429 1285.42 620.184 C 1288.2 622.656 1291.24 626.959 1294.85 627.781 C 1295.96 622.626 1295.45 619.678 1292.78 615.153 L 1290.06 610.538 L 1297.69 607.493 L 1296.54 606.997 L 1297.69 607.013 C 1287.98 607.363 1279.87 601.904 1270.07 601.41 C 1245.54 600.176 1228.79 617.111 1206.15 596.888 C 1198.31 589.889 1186.83 575.649 1186.07 564.93 C 1185.83 561.551 1186.73 558.807 1189.05 556.283 C 1194.09 550.778 1204.41 550.466 1211.3 550.777 C 1265.05 553.202 1266.91 595.969 1301.85 603.937 C 1308.32 597.263 1311.95 590.796 1315.64 582.329 L 1310.7 588.7 C 1308.15 592.018 1305.39 594.003 1301.12 594.422 C 1298.25 594.704 1295.56 593.598 1293.41 591.749 C 1287.97 587.088 1283.82 580.331 1279.98 574.365 C 1294.49 563.458 1309.45 550.017 1320.96 536.032 C 1336.63 516.999 1354.84 482.315 1377.96 472.643 C 1386.67 469.001 1396.76 469.015 1405.99 470.336 C 1409.06 470.776 1412.12 471.428 1415.16 472.078 C 1400.76 503.709 1388.67 531.319 1386.76 566.55 C 1395.06 544.946 1404.3 524.099 1413.96 503.079 C 1419.54 490.924 1424.68 477.645 1432.65 466.828 C 1436.44 461.688 1440.46 457.764 1446.38 455.24 C 1457.23 450.613 1468.55 451.213 1479.25 455.951 C 1489.13 460.325 1497.52 467.571 1506.5 473.449 C 1528.9 488.11 1557.66 478.559 1580.79 470.154 C 1613.25 458.357 1644.26 441.629 1673.77 423.809 C 1690.41 413.757 1707.24 396.039 1726.01 390.982 C 1739.54 387.336 1751.92 391.18 1764.13 396.838 C 1784.88 406.459 1793.54 411.489 1817.32 409.574 z"/>
<path transform="translate(0,0)" fill="rgb(254,254,254)" d="M 1729.39 398.193 A 47.0765 47.0765 0 0 1 1736.76 398.158 C 1750.94 399.074 1756.66 407.317 1765.2 417.124 C 1757.94 420.2 1750.82 422.868 1743.23 425.035 C 1735.75 426.663 1728.44 427.309 1721.16 424.531 C 1716.64 422.809 1710.82 419.056 1709.31 414.142 C 1708.49 411.487 1708.5 409.112 1710.05 406.709 C 1713.89 400.767 1722.99 399.594 1729.39 398.193 z"/>
<path transform="translate(0,0)" fill="rgb(16,15,15)" d="M 1733.44 406.337 C 1739.22 406.023 1743.71 406.834 1748.86 409.543 L 1747.91 410.988 L 1749.57 410.092 L 1749.76 411.046 C 1742.11 409.689 1734.4 408.004 1726.6 408.394 C 1726.17 408.416 1725.73 408.455 1725.3 408.485 C 1736.23 412.061 1747.8 413.535 1759.1 415.558 C 1760.98 415.333 1760.16 415.101 1761.6 416.134 C 1761.28 416.349 1760.97 416.595 1760.63 416.781 C 1750.8 422.085 1736.03 420.368 1725.78 416.933 C 1722.76 415.921 1719.42 414.851 1717.9 411.845 L 1718.75 409.797 C 1720.52 408.831 1722.04 407.886 1724.06 407.59 C 1727.18 407.135 1730.32 406.778 1733.44 406.337 z"/>
<path transform="translate(0,0)" fill="rgb(254,254,254)" d="M 753.567 1270.9 L 754.695 1271.16 C 752.23 1274.57 747.182 1276.85 743.603 1279.09 C 717.963 1295.15 691.025 1305.61 661.526 1312.21 C 591.552 1327.88 514.404 1320.13 453.091 1281.13 C 448.591 1278.03 444.601 1274.79 440.583 1271.09 C 453.475 1277.61 466.529 1283.42 480.153 1288.24 C 567.829 1319.27 670.223 1310.82 753.567 1270.9 z"/>
<path transform="translate(0,0)" fill="rgb(254,254,254)" d="M 1398.17 663.585 C 1399.64 664.713 1399.32 664.287 1400.25 665.544 C 1436.35 714.349 1459.09 720.41 1513.39 742.303 C 1529.28 748.71 1545.35 756.406 1557.9 768.322 C 1607.66 815.573 1576.43 871.401 1586.5 926.347 C 1588.9 939.491 1593.76 952.168 1599.76 964.067 C 1602.43 969.342 1613.78 985.029 1613.89 988.935 C 1604.19 980.351 1595.68 970.135 1588.59 959.309 C 1581.47 948.42 1574.97 936.066 1572.45 923.186 C 1570.3 912.122 1571.34 900.789 1572.16 889.644 C 1574.6 856.698 1579.24 820.828 1559.97 791.718 C 1521.87 734.166 1438.44 751.107 1398.17 663.585 z"/>
<path transform="translate(0,0)" fill="rgb(254,254,254)" d="M 1459.59 480.092 C 1461.39 479.934 1463.21 479.782 1465.02 479.792 C 1471.18 479.825 1476.97 483.013 1481.09 487.463 C 1489.72 496.767 1491.1 509.333 1490.99 521.385 A 739.996 739.996 0 0 0 1496.68 515.619 C 1497.12 512.71 1497.71 509.969 1498.45 507.119 L 1499.38 506.831 C 1500.49 510.035 1501.18 513.745 1500.88 517.15 C 1500.84 517.633 1500.78 518.115 1500.72 518.598 L 1502.42 519.757 C 1505.98 519.538 1507.33 518.234 1510.3 516.34 L 1508.39 518.392 C 1512.64 516.544 1516.09 513.761 1520.6 512.264 C 1530.43 508.998 1540.57 507.755 1550.52 504.063 C 1532.3 519.381 1518.22 538.918 1499.58 553.875 C 1487.34 563.528 1474.32 567.851 1459.36 571.445 C 1479.39 558.983 1484.6 552.343 1498.56 533.814 C 1494.7 536.347 1490.86 538.602 1486.56 540.323 C 1475.66 544.692 1462.12 546.659 1451.13 541.731 A 27.9844 27.9844 0 0 1 1436.05 525.355 C 1432.9 516.485 1433.58 506.018 1437.89 497.655 C 1442.5 488.723 1450.17 483.076 1459.59 480.092 z"/>
<path transform="translate(0,0)" fill="rgb(45,43,44)" d="M 1445.42 503.824 A 136.537 136.537 0 0 1 1446.75 501.459 C 1450.17 495.542 1454.36 490.268 1461.38 488.674 C 1466.82 487.439 1471.27 488.96 1475.93 491.692 C 1482.57 498.084 1486.26 504.473 1486.29 513.911 C 1486.32 520.287 1484.78 526.868 1480.22 531.569 C 1476.03 535.896 1469.9 537.646 1464 537.407 C 1457.21 537.131 1450.41 534.322 1445.76 529.297 C 1442.23 525.476 1440.49 520.673 1440.79 515.476 C 1441.04 511.071 1442.86 507.349 1445.42 503.824 z"/>
<path transform="translate(0,0)" fill="rgb(70,69,70)" d="M 1445.42 503.824 A 136.537 136.537 0 0 1 1446.75 501.459 C 1450.17 495.542 1454.36 490.268 1461.38 488.674 C 1466.82 487.439 1471.27 488.96 1475.93 491.692 L 1474.5 493.257 L 1470.04 492.996 C 1466.73 492.792 1462.34 492.487 1459.64 494.668 C 1461.18 495.981 1461.58 495.823 1463.49 496.163 C 1456.73 499.034 1453.72 500.846 1450.84 507.749 C 1450.6 508.303 1450.39 508.866 1450.17 509.425 C 1450.65 513.545 1451.85 517.753 1454.15 521.221 C 1455.2 522.8 1455.82 523.652 1456.05 525.601 L 1454.32 525.767 C 1447.49 520.658 1449.93 511.958 1446.28 505.302 C 1446 504.803 1445.71 504.317 1445.42 503.824 z"/>
<path transform="translate(0,0)" fill="rgb(16,15,15)" d="M 1463.49 496.163 C 1469.08 497.058 1471.43 498.852 1474.71 503.523 C 1477.22 507.1 1478.64 511.983 1477.58 516.305 C 1476.83 519.319 1474.99 521.086 1472.26 522.433 C 1470.02 523.54 1465.54 523.97 1463.18 523.133 C 1460.64 522.231 1459.43 520.844 1458.51 518.367 C 1457.42 515.391 1457.47 512.038 1454.94 509.858 C 1453.34 509.666 1451.78 509.457 1450.17 509.425 C 1450.39 508.866 1450.6 508.303 1450.84 507.749 C 1453.72 500.846 1456.73 499.034 1463.49 496.163 z"/>
<path transform="translate(0,0)" fill="rgb(254,254,254)" d="M 944.581 589.101 L 944.997 589.292 C 944.48 591.19 896.965 630.552 890.235 636.924 A 666.221 666.221 0 0 0 783.479 766.024 C 739.217 837.314 710.737 911.853 720.065 997.1 C 723.296 1026.63 730.608 1055.65 738.216 1084.3 A 2431.98 2431.98 0 0 0 772.445 1201.36 C 776.674 1214.8 780.762 1228.27 785.446 1241.56 C 790.145 1254.9 795.773 1268.25 798.914 1282.04 L 799.311 1283.83 C 797.208 1279.7 795.327 1275.45 793.385 1271.25 C 769.673 1218 748.046 1164.9 730.539 1109.25 C 702.059 1018.7 687.689 948.541 721 855.758 C 728.823 833.969 738.189 812.297 749.52 792.105 C 789.193 721.406 869.96 624.298 944.581 589.101 z"/>
</svg>